<!-- velimir-mueller profile (D-41). Text outlined from Space Mono and Inter (SIL OFL 1.1). No live text, no fonts, no external references. Generated by scripts/make-profile.py. Do not edit by hand. -->
<svg xmlns="http://www.w3.org/2000/svg" viewBox="0 0 1280 470" width="1280" height="470" role="img" aria-label="The rig: ticket by me, spec by model and me, implement by models, two reviews that both must approve, ship by me; reviews feed a memory of lessons."><title>The rig: ticket by me, spec by model and me, implement by models, two reviews that both must approve, ship by me; reviews feed a memory of lessons.</title>
<defs>
<radialGradient id="vm-rig-light-g0"><stop offset="0" stop-color="#14b8a6" stop-opacity="0.14"/><stop offset="1" stop-color="#14b8a6" stop-opacity="0"/></radialGradient><radialGradient id="vm-rig-light-g1"><stop offset="0" stop-color="#ef4444" stop-opacity="0.08"/><stop offset="1" stop-color="#ef4444" stop-opacity="0"/></radialGradient><radialGradient id="vm-rig-light-g2"><stop offset="0" stop-color="#8b5cf6" stop-opacity="0.14"/><stop offset="1" stop-color="#8b5cf6" stop-opacity="0"/></radialGradient>
<pattern id="vm-rig-light-grid" width="32" height="32" patternUnits="userSpaceOnUse"><path d="M32 0H0V32" fill="none" stroke="#18181b" stroke-opacity="0.05" stroke-width="1"/></pattern>
<radialGradient id="vm-rig-light-fade" cx="0.5" cy="0.35" r="0.75"><stop offset="0" stop-color="#fff" stop-opacity="1"/><stop offset="1" stop-color="#fff" stop-opacity="0"/></radialGradient>
<mask id="vm-rig-light-m"><rect width="1280" height="470" fill="url(#vm-rig-light-fade)"/></mask>
<clipPath id="vm-rig-light-clip"><rect width="1280" height="470" rx="32"/></clipPath>
</defs>
<g clip-path="url(#vm-rig-light-clip)">
<rect width="1280" height="470" fill="#fafafa"/>
<rect width="1280" height="470" fill="url(#vm-rig-light-grid)" mask="url(#vm-rig-light-m)"/>
<ellipse cx="205" cy="0" rx="410" ry="258" fill="url(#vm-rig-light-g0)"/>
<ellipse cx="666" cy="0" rx="333" ry="188" fill="url(#vm-rig-light-g1)"/>
<ellipse cx="1152" cy="24" rx="384" ry="282" fill="url(#vm-rig-light-g2)"/>
<ellipse cx="896" cy="470" rx="384" ry="164" fill="url(#vm-rig-light-g0)" opacity="0.6"/>
</g>
<rect x="0.5" y="0.5" width="1279" height="469" rx="31.5" fill="none" stroke="#e4e4e7"/>
<rect x="32" y="32" width="1216" height="406" rx="24" fill="#ffffff" fill-opacity="0.92" stroke="#e4e4e7" stroke-width="1"/>
<rect x="48" y="48" width="1184" height="374" rx="12" fill="url(#vm-rig-light-grid)" opacity="0.9"/>
<path fill="#71717a" d="M64.9 72V64.3H67.7Q68.5 64.3 69 64.6Q69.5 64.9 69.8 65.4Q70 65.8 70 66.4V66.7Q70 67.1 69.8 67.6Q69.6 68 69.1 68.2V68.4Q69.4 68.4 69.6 68.6Q69.8 68.8 69.8 69.2V72H68.9V69.4Q68.9 69.1 68.7 69Q68.6 68.8 68.3 68.8H65.9V72ZM65.9 68H67.6Q69.1 68 69.1 66.7V66.5Q69.1 65.9 68.7 65.5Q68.4 65.2 67.6 65.2H65.9ZM73.7 72V71.1H75.6V65.2H73.7V64.3H78.5V65.2H76.6V71.1H78.5V72ZM84.8 72.2Q83.5 72.2 82.8 71.3Q82.1 70.5 82.1 69V67.3Q82.1 65.8 82.8 65Q83.6 64.1 84.8 64.1Q85.7 64.1 86.3 64.5Q86.9 64.9 87.2 65.5Q87.5 66.2 87.5 66.9V67.1H86.6V66.9Q86.6 66.4 86.4 66Q86.2 65.6 85.8 65.3Q85.4 65 84.8 65Q83.9 65 83.5 65.7Q83 66.3 83 67.4V68.9Q83 70.1 83.5 70.7Q83.9 71.3 84.8 71.3Q85.7 71.3 86.1 70.8Q86.6 70.2 86.6 69.3V69.2H84.1V68.3H87.5V72H86.7V71.1H86.5Q86.4 71.5 85.9 71.9Q85.4 72.2 84.8 72.2Z"/>
<path fill="#71717a" d="M99.1 73.2 98.3 72.9 101.5 63.1 102.3 63.4ZM115.2 72V64.3H116.1V67.7H119.4V64.3H120.3V72H119.4V68.6H116.1V72ZM126.5 72.2Q125.2 72.2 124.5 71.3Q123.8 70.5 123.8 69V67.3Q123.8 65.8 124.5 65Q125.2 64.1 126.5 64.1Q127.8 64.1 128.5 65Q129.2 65.8 129.2 67.3V69Q129.2 70.5 128.5 71.3Q127.8 72.2 126.5 72.2ZM126.5 71.3Q127.4 71.3 127.8 70.7Q128.3 70.1 128.3 68.9V67.4Q128.3 66.3 127.8 65.7Q127.4 65 126.5 65Q125.6 65 125.2 65.7Q124.7 66.3 124.7 67.4V68.9Q124.7 70.1 125.2 70.7Q125.6 71.3 126.5 71.3ZM132.8 72 132 64.3H132.8L133.5 71.6H133.7L134.4 64.3H136.1L136.8 71.6H136.9L137.6 64.3H138.5L137.7 72H136L135.3 64.7H135.2L134.4 72ZM149.5 72 151.8 64.3H153.6L155.9 72H154.9L154.3 70.1H151L150.5 72ZM151.3 69.2H154.1L152.8 64.7H152.6ZM170.2 72.2Q168.9 72.2 168.2 71.3Q167.5 70.5 167.5 69V67.3Q167.5 65.8 168.2 65Q168.9 64.1 170.2 64.1Q171.1 64.1 171.7 64.5Q172.3 64.9 172.6 65.5Q172.9 66.2 172.9 66.9V67.1H172V66.9Q172 66.4 171.8 66Q171.6 65.6 171.2 65.3Q170.8 65 170.2 65Q169.3 65 168.9 65.7Q168.4 66.3 168.4 67.4V68.9Q168.4 70.1 168.9 70.7Q169.3 71.3 170.2 71.3Q170.8 71.3 171.2 71Q171.6 70.7 171.8 70.3Q172 69.9 172 69.4V69.2H172.9V69.4Q172.9 70.1 172.6 70.8Q172.3 71.4 171.7 71.8Q171.1 72.2 170.2 72.2ZM176.3 72V64.3H177.2V67.7H180.5V64.3H181.4V72H180.5V68.6H177.2V72ZM184.4 72 186.7 64.3H188.5L190.8 72H189.8L189.3 70.1H186L185.4 72ZM186.2 69.2H189L187.7 64.7H187.5ZM193.8 72V64.3H195.6L197.9 71.6H198V64.3H198.9V72H197.1L194.8 64.7H194.7V72ZM205 72.2Q203.8 72.2 203.1 71.3Q202.4 70.5 202.4 69V67.3Q202.4 65.8 203.1 65Q203.8 64.1 205.1 64.1Q205.9 64.1 206.6 64.5Q207.2 64.9 207.5 65.5Q207.8 66.2 207.8 66.9V67.1H206.8V66.9Q206.8 66.4 206.7 66Q206.5 65.6 206.1 65.3Q205.7 65 205.1 65Q204.2 65 203.7 65.7Q203.3 66.3 203.3 67.4V68.9Q203.3 70.1 203.7 70.7Q204.2 71.3 205.1 71.3Q205.9 71.3 206.4 70.8Q206.8 70.2 206.8 69.3V69.2H204.3V68.3H207.8V72H206.9V71.1H206.8Q206.6 71.5 206.1 71.9Q205.6 72.2 205 72.2ZM211.5 72V64.3H216.1V65.2H212.4V67.7H216.1V68.6H212.4V71.1H216.2V72ZM231.4 72.2Q230.4 72.2 229.8 71.8Q229.1 71.4 228.7 70.8Q228.4 70.1 228.4 69.3V69H229.3V69.3Q229.3 70.3 229.9 70.8Q230.4 71.3 231.4 71.3Q232.3 71.3 232.7 70.9Q233.2 70.5 233.2 69.9V69.8Q233.2 69.2 232.7 68.9Q232.3 68.6 231.3 68.5Q230.1 68.3 229.4 67.8Q228.7 67.3 228.7 66.3V66.2Q228.7 65.6 229.1 65.1Q229.4 64.7 230 64.4Q230.5 64.1 231.3 64.1Q232.1 64.1 232.8 64.5Q233.4 64.8 233.7 65.3Q234 65.8 234 66.5V66.9H233.1V66.5Q233.1 66 232.8 65.7Q232.6 65.3 232.2 65.2Q231.7 65 231.3 65Q230.8 65 230.5 65.1Q230.1 65.3 229.9 65.6Q229.7 65.8 229.7 66.2V66.3Q229.7 66.9 230.2 67.2Q230.7 67.5 231.7 67.7Q232.9 67.8 233.5 68.4Q234.1 68.9 234.1 69.8V69.9Q234.1 70.9 233.4 71.5Q232.7 72.2 231.4 72.2ZM237.4 72V64.3H238.4V67.7H241.6V64.3H242.6V72H241.6V68.6H238.4V72ZM246.3 72V71.1H248.3V65.2H246.3V64.3H251.2V65.2H249.2V71.1H251.2V72ZM255 72V64.3H257.8Q258.6 64.3 259.1 64.6Q259.6 64.9 259.9 65.4Q260.1 65.8 260.1 66.4V66.7Q260.1 67.3 259.9 67.8Q259.6 68.2 259.1 68.5Q258.6 68.8 257.8 68.8H256V72ZM256 68H257.7Q259.2 68 259.2 66.7V66.5Q259.2 65.9 258.8 65.5Q258.5 65.2 257.7 65.2H256ZM266.4 72.2Q265.4 72.2 264.7 71.8Q264 71.4 263.7 70.8Q263.3 70.1 263.3 69.3V69H264.3V69.3Q264.3 70.3 264.8 70.8Q265.4 71.3 266.4 71.3Q267.2 71.3 267.6 70.9Q268.1 70.5 268.1 69.9V69.8Q268.1 69.2 267.6 68.9Q267.2 68.6 266.2 68.5Q265 68.3 264.3 67.8Q263.7 67.3 263.7 66.3V66.2Q263.7 65.6 264 65.1Q264.3 64.7 264.9 64.4Q265.5 64.1 266.2 64.1Q267.1 64.1 267.7 64.5Q268.3 64.8 268.6 65.3Q268.9 65.8 268.9 66.5V66.9H268V66.5Q268 66 267.8 65.7Q267.5 65.3 267.1 65.2Q266.7 65 266.2 65Q265.8 65 265.4 65.1Q265 65.3 264.8 65.6Q264.6 65.8 264.6 66.2V66.3Q264.6 66.9 265.1 67.2Q265.6 67.5 266.7 67.7Q267.9 67.8 268.4 68.4Q269 68.9 269 69.8V69.9Q269 70.9 268.3 71.5Q267.7 72.2 266.4 72.2Z"/>
<rect x="1012.0" y="54.0" width="180.0" height="26.4" rx="13.2" fill="#059669" fill-opacity="0.08" stroke="#059669" stroke-opacity="0.35" stroke-width="1"/>
<circle cx="1026.5" cy="67.2" r="3.0" fill="#059669"/>
<path fill="#059669" d="M1037.7 71.2V63.2H1038.7V66.8H1042.1V63.2H1043.1V71.2H1042.1V67.7H1038.7V71.2ZM1048.8 71.4Q1047.6 71.4 1046.8 70.7Q1046.1 69.9 1046.1 68.5V63.2H1047V68.5Q1047 69.5 1047.5 70Q1048 70.5 1048.8 70.5Q1049.7 70.5 1050.2 70Q1050.6 69.5 1050.6 68.5V63.2H1051.6V68.5Q1051.6 69.9 1050.9 70.7Q1050.1 71.4 1048.8 71.4ZM1054.3 71.2V63.2H1056.1L1057.2 70.8H1057.3L1058.4 63.2H1060.2V71.2H1059.3V63.6H1059.2L1058.1 71.2H1056.4L1055.3 63.6H1055.2V71.2ZM1062.3 71.2 1064.8 63.2H1066.6L1069 71.2H1068L1067.4 69.2H1063.9L1063.4 71.2ZM1064.2 68.4H1067.1L1065.7 63.6H1065.6ZM1071.4 71.2V63.2H1073.3L1075.7 70.8H1075.8V63.2H1076.8V71.2H1074.8L1072.5 63.6H1072.4V71.2ZM1088.4 71.2V70.4H1090.4V64.1H1088.4V63.2H1093.5V64.1H1091.4V70.4H1093.5V71.2ZM1096.7 71.2V63.2H1098.6L1100.9 70.8H1101.1V63.2H1102V71.2H1100.1L1097.8 63.6H1097.6V71.2ZM1115.7 71.2V64.1H1113.3V63.2H1119V64.1H1116.7V71.2ZM1121.9 71.2V63.2H1122.9V66.8H1126.3V63.2H1127.3V71.2H1126.3V67.7H1122.9V71.2ZM1130.6 71.2V63.2H1135.5V64.1H1131.5V66.8H1135.4V67.7H1131.5V70.4H1135.5V71.2ZM1147.3 71.2V63.2H1148.3V70.4H1152.5V71.2ZM1158.3 71.4Q1156.9 71.4 1156.2 70.6Q1155.4 69.7 1155.4 68.1V66.3Q1155.4 64.8 1156.2 63.9Q1156.9 63 1158.3 63Q1159.6 63 1160.3 63.9Q1161.1 64.8 1161.1 66.3V68.1Q1161.1 69.7 1160.3 70.6Q1159.6 71.4 1158.3 71.4ZM1158.3 70.5Q1159.2 70.5 1159.7 69.9Q1160.1 69.2 1160.1 68.1V66.4Q1160.1 65.3 1159.7 64.6Q1159.2 63.9 1158.3 63.9Q1157.3 63.9 1156.9 64.6Q1156.4 65.3 1156.4 66.4V68.1Q1156.4 69.2 1156.9 69.9Q1157.3 70.5 1158.3 70.5ZM1166.7 71.4Q1165.4 71.4 1164.6 70.6Q1163.9 69.7 1163.9 68.1V66.3Q1163.9 64.8 1164.6 63.9Q1165.4 63 1166.7 63Q1168 63 1168.8 63.9Q1169.5 64.8 1169.5 66.3V68.1Q1169.5 69.7 1168.8 70.6Q1168 71.4 1166.7 71.4ZM1166.7 70.5Q1167.6 70.5 1168.1 69.9Q1168.5 69.2 1168.5 68.1V66.4Q1168.5 65.3 1168.1 64.6Q1167.6 63.9 1166.7 63.9Q1165.8 63.9 1165.3 64.6Q1164.8 65.3 1164.8 66.4V68.1Q1164.8 69.2 1165.3 69.9Q1165.8 70.5 1166.7 70.5ZM1172.6 71.2V63.2H1175.4Q1176.3 63.2 1176.8 63.5Q1177.4 63.8 1177.6 64.3Q1177.9 64.8 1177.9 65.4V65.7Q1177.9 66.3 1177.6 66.8Q1177.3 67.3 1176.8 67.6Q1176.3 67.9 1175.4 67.9H1173.5V71.2ZM1173.5 67H1175.3Q1176.9 67 1176.9 65.7V65.5Q1176.9 64.8 1176.5 64.5Q1176.1 64.1 1175.3 64.1H1173.5Z"/>
<rect x="78.0" y="124" width="196" height="104" rx="14" fill="#ffffff" stroke="#e4e4e7" stroke-width="1.2"/>
<rect x="96.0" y="140" width="22" height="2" fill="#4f46e5"/>
<path fill="#18181b" d="M100.6 170V159.1H97V156.7H106.6V159.1H103.1V170ZM109.4 170V167.6H112.6V159.1H109.4V156.7H118.3V159.1H115.1V167.6H118.3V170ZM125.9 170.3Q123.6 170.3 122.3 168.9Q121 167.5 121 164.8V161.9Q121 159.3 122.3 157.9Q123.6 156.4 125.9 156.4Q128.3 156.4 129.5 157.8Q130.8 159.1 130.8 161.4V161.7H128.3V161.4Q128.3 160.7 128.1 160.1Q127.8 159.5 127.3 159.1Q126.8 158.7 125.9 158.7Q125.1 158.7 124.5 159.1Q124 159.5 123.7 160.2Q123.5 160.9 123.5 161.7V165Q123.5 166.3 124 167.1Q124.6 168 125.9 168Q126.9 168 127.4 167.6Q127.9 167.2 128.1 166.6Q128.3 166 128.3 165.3V165H130.8V165.3Q130.8 167.7 129.5 169Q128.3 170.3 125.9 170.3ZM133.5 170V156.7H136.1V162.2H136.6L140.1 156.7H143V156.8L138.8 163.2V163.5L143.2 169.9V170H140.2L136.6 164.5H136.1V170ZM145.7 170V156.7H154.1V159.1H148.2V162.1H153.8V164.5H148.2V167.6H154.3V170ZM160.7 170V159.1H157.2V156.7H166.7V159.1H163.2V170Z"/>
<path fill="#52525b" d="M96.5 192V183.9H98.4L99.5 191.6H99.6L100.7 183.9H102.5V192H101.6V184.4H101.5L100.4 192H98.6L97.6 184.4H97.4V192ZM105.3 192V183.9H110.2V184.8H106.3V187.5H110.1V188.4H106.3V191.1H110.3V192Z"/>
<path fill="#059669" d="M96.7 214V207.3H97.5V210.3H100.3V207.3H101.1V214H100.3V211H97.5V214ZM106.3 214.1Q105.3 214.1 104.7 213.5Q104 212.9 104 211.8V207.3H104.8V211.8Q104.8 212.6 105.2 213Q105.6 213.4 106.3 213.4Q107.1 213.4 107.4 213Q107.8 212.6 107.8 211.8V207.3H108.6V211.8Q108.6 212.9 108 213.5Q107.4 214.1 106.3 214.1ZM111.3 214V207.3H112.8L113.7 213.7H113.8L114.7 207.3H116.2V214H115.5V207.7H115.4L114.5 214H113L112.1 207.7H112V214ZM118.4 214 120.4 207.3H121.9L123.9 214H123.1L122.6 212.3H119.7L119.2 214ZM119.9 211.6H122.4L121.2 207.7H121.1ZM126.3 214V207.3H127.9L129.9 213.7H130V207.3H130.8V214H129.2L127.3 207.7H127.1V214Z"/>
<line x1="278.0" y1="176.0" x2="306.0" y2="176.0" stroke="#4f46e5" stroke-width="2"/>
<path d="M306.0 176.0 L297.0 171.0 L297.0 181.0 Z" fill="#4f46e5"/>
<rect x="310.0" y="124" width="196" height="104" rx="14" fill="#ffffff" stroke="#e4e4e7" stroke-width="1.2"/>
<rect x="328.0" y="140" width="22" height="2" fill="#4f46e5"/>
<path fill="#18181b" d="M334 170.3Q332.3 170.3 331.1 169.6Q329.9 169 329.3 167.9Q328.7 166.8 328.7 165.4V164.8H331.2V165.3Q331.2 166.5 331.9 167.2Q332.6 167.9 334 167.9Q335.2 167.9 335.7 167.4Q336.3 166.9 336.3 166.2Q336.3 165.8 336.1 165.4Q335.9 165.1 335.3 164.8Q334.8 164.5 333.7 164.3Q332.4 164.1 331.4 163.7Q330.3 163.2 329.7 162.4Q329.1 161.7 329.1 160.3V160.2Q329.1 159.2 329.7 158.3Q330.3 157.4 331.3 156.9Q332.4 156.4 333.7 156.4Q335.3 156.4 336.4 157Q337.5 157.6 338 158.5Q338.6 159.5 338.6 160.5V161.2H336.1V160.8Q336.1 160 335.5 159.4Q334.9 158.8 333.7 158.8Q332.8 158.8 332.2 159.2Q331.7 159.6 331.7 160.2Q331.7 160.9 332.3 161.3Q332.9 161.8 334.5 162.1Q336.6 162.4 337.7 163.3Q338.8 164.2 338.8 166V166.2Q338.8 168 337.5 169.2Q336.2 170.3 334 170.3ZM341.4 170V156.7H346.6Q348 156.7 348.9 157.3Q349.8 157.8 350.2 158.7Q350.7 159.6 350.7 160.6V161Q350.7 162 350.2 162.9Q349.8 163.8 348.9 164.4Q348 165 346.6 165H343.9V170ZM343.9 162.6H346.4Q347.2 162.6 347.7 162.1Q348.2 161.7 348.2 161V160.7Q348.2 160 347.7 159.6Q347.2 159.1 346.4 159.1H343.9ZM353.6 170V156.7H362V159.1H356.1V162.1H361.8V164.5H356.1V167.6H362.2V170ZM369.9 170.3Q367.7 170.3 366.3 168.9Q365 167.5 365 164.8V161.9Q365 159.3 366.3 157.9Q367.7 156.4 369.9 156.4Q372.3 156.4 373.6 157.8Q374.8 159.1 374.8 161.4V161.7H372.3V161.4Q372.3 160.7 372.1 160.1Q371.9 159.5 371.4 159.1Q370.8 158.7 369.9 158.7Q369.1 158.7 368.6 159.1Q368 159.5 367.8 160.2Q367.5 160.9 367.5 161.7V165Q367.5 166.3 368.1 167.1Q368.6 168 369.9 168Q370.9 168 371.4 167.6Q371.9 167.2 372.1 166.6Q372.3 166 372.3 165.3V165H374.8V165.3Q374.8 167.7 373.6 169Q372.3 170.3 369.9 170.3Z"/>
<path fill="#52525b" d="M328.5 192V183.9H330.4L331.4 191.6H331.6L332.7 183.9H334.5V192H333.6V184.4H333.5L332.4 192H330.6L329.6 184.4H329.4V192ZM339.8 192.2Q338.4 192.2 337.7 191.3Q336.9 190.5 336.9 188.9V187.1Q336.9 185.5 337.7 184.7Q338.4 183.8 339.8 183.8Q341.1 183.8 341.8 184.7Q342.6 185.5 342.6 187.1V188.9Q342.6 190.5 341.8 191.3Q341.1 192.2 339.8 192.2ZM339.8 191.3Q340.7 191.3 341.2 190.6Q341.6 190 341.6 188.8V187.1Q341.6 186 341.2 185.4Q340.7 184.7 339.8 184.7Q338.8 184.7 338.4 185.4Q337.9 186 337.9 187.1V188.8Q337.9 190 338.4 190.6Q338.8 191.3 339.8 191.3ZM345.3 192V191.1H346V184.8H345.3V183.9H348Q349.4 183.9 350.1 184.7Q350.8 185.4 350.8 186.9V189Q350.8 190.6 350.1 191.3Q349.4 192 348 192ZM347 191.1H347.8Q348.5 191.1 349 190.9Q349.4 190.7 349.7 190.3Q349.9 189.8 349.9 188.9V187Q349.9 186.2 349.7 185.7Q349.4 185.2 349 185Q348.5 184.8 347.8 184.8H347ZM353.8 192V183.9H358.7V184.8H354.8V187.5H358.6V188.4H354.8V191.1H358.7V192ZM362 192V183.9H362.9V191.1H367.1V192ZM380.5 190.4V188.4H378.5V187.6H380.5V185.6H381.4V187.6H383.4V188.4H381.4V190.4ZM394.4 192V183.9H396.3L397.4 191.6H397.5L398.6 183.9H400.4V192H399.5V184.4H399.4L398.3 192H396.5L395.5 184.4H395.3V192ZM403.2 192V183.9H408.1V184.8H404.2V187.5H408V188.4H404.2V191.1H408.2V192Z"/>
<path fill="#7c3aed" d="M328.4 214V207.3H330L330.9 213.7H331L331.9 207.3H333.4V214H332.6V207.7H332.5L331.6 214H330.2L329.3 207.7H329.2V214ZM338.3 214.1Q337.2 214.1 336.6 213.4Q336 212.7 336 211.4V209.9Q336 208.7 336.6 207.9Q337.2 207.2 338.3 207.2Q339.4 207.2 340 207.9Q340.7 208.7 340.7 209.9V211.4Q340.7 212.7 340 213.4Q339.4 214.1 338.3 214.1ZM338.3 213.4Q339.1 213.4 339.5 212.9Q339.9 212.3 339.9 211.4V210Q339.9 209.1 339.5 208.5Q339.1 208 338.3 208Q337.6 208 337.2 208.5Q336.8 209.1 336.8 210V211.4Q336.8 212.3 337.2 212.9Q337.6 213.4 338.3 213.4ZM343.5 214V213.2H344.1V208.1H343.5V207.3H345.7Q346.9 207.3 347.5 207.9Q348.1 208.5 348.1 209.8V211.5Q348.1 212.8 347.5 213.4Q346.9 214 345.7 214ZM344.9 213.3H345.6Q346.2 213.3 346.5 213.1Q346.9 212.9 347.1 212.6Q347.3 212.2 347.3 211.5V209.9Q347.3 209.2 347.1 208.8Q346.9 208.4 346.5 208.2Q346.2 208.1 345.6 208.1H344.9ZM351.1 214V207.3H355.2V208.1H351.9V210.3H355.1V211H351.9V213.3H355.2V214ZM358.5 214V207.3H359.3V213.3H362.8V214ZM375 212.7V211H373.4V210.3H375V208.7H375.7V210.3H377.4V211H375.7V212.7ZM388 214V207.3H388.8V210.3H391.6V207.3H392.4V214H391.6V211H388.8V214ZM397.6 214.1Q396.6 214.1 396 213.5Q395.4 212.9 395.4 211.8V207.3H396.2V211.8Q396.2 212.6 396.5 213Q396.9 213.4 397.6 213.4Q398.4 213.4 398.7 213Q399.1 212.6 399.1 211.8V207.3H399.9V211.8Q399.9 212.9 399.3 213.5Q398.7 214.1 397.6 214.1ZM402.6 214V207.3H404.1L405 213.7H405.1L406 207.3H407.5V214H406.8V207.7H406.7L405.8 214H404.3L403.4 207.7H403.3V214ZM409.7 214 411.7 207.3H413.2L415.2 214H414.4L413.9 212.3H411L410.6 214ZM411.3 211.6H413.7L412.5 207.7H412.4ZM417.7 214V207.3H419.3L421.2 213.7H421.3V207.3H422.1V214H420.5L418.6 207.7H418.5V214Z"/>
<line x1="510.0" y1="176.0" x2="538.0" y2="176.0" stroke="#4f46e5" stroke-width="2"/>
<path d="M538.0 176.0 L529.0 171.0 L529.0 181.0 Z" fill="#4f46e5"/>
<rect x="542.0" y="124" width="196" height="104" rx="14" fill="#ffffff" stroke="#e4e4e7" stroke-width="1.2"/>
<rect x="560.0" y="140" width="22" height="2" fill="#4f46e5"/>
<path fill="#18181b" d="M561.4 170V167.6H564.6V159.1H561.4V156.7H570.3V159.1H567.1V167.6H570.3V170ZM572.4 170V156.7H576.9L577.6 166.7V168.6H578.1V166.7L578.8 156.7H583.2V170H581V161.1L581.2 158.1H580.7L579.7 170H576L575 158.1H574.5L574.7 161.1V170ZM585.4 170V156.7H590.6Q592 156.7 592.9 157.3Q593.8 157.8 594.2 158.7Q594.7 159.6 594.7 160.6V161Q594.7 162 594.2 162.9Q593.8 163.8 592.9 164.4Q592 165 590.6 165H587.9V170ZM587.9 162.6H590.4Q591.2 162.6 591.7 162.1Q592.2 161.7 592.2 161V160.7Q592.2 160 591.7 159.6Q591.2 159.1 590.4 159.1H587.9ZM597.6 170V156.7H600.2V167.6H606.2V170ZM609.7 170V156.7H618.1V159.1H612.2V162.1H617.8V164.5H612.2V167.6H618.3V170ZM620.6 170V156.7H625L625.7 166.7V168.6H626.2V166.7L626.9 156.7H631.4V170H629.1V161.1L629.3 158.1H628.8L627.9 170H624.1L623.1 158.1H622.6L622.8 161.1V170ZM633.7 170V156.7H642.1V159.1H636.2V162.1H641.9V164.5H636.2V167.6H642.4V170ZM645.4 170V156.7H650.3L651.8 168.7H652.2V156.7H654.7V170H649.8L648.2 158H647.9V170ZM660.8 170V159.1H657.3V156.7H666.8V159.1H663.3V170Z"/>
<path fill="#52525b" d="M560.5 192V183.9H562.4L563.5 191.6H563.6L564.7 183.9H566.5V192H565.6V184.4H565.5L564.4 192H562.6L561.6 184.4H561.4V192ZM571.8 192.2Q570.4 192.2 569.7 191.3Q568.9 190.5 568.9 188.9V187.1Q568.9 185.5 569.7 184.7Q570.4 183.8 571.8 183.8Q573.1 183.8 573.8 184.7Q574.6 185.5 574.6 187.1V188.9Q574.6 190.5 573.8 191.3Q573.1 192.2 571.8 192.2ZM571.8 191.3Q572.7 191.3 573.2 190.6Q573.6 190 573.6 188.8V187.1Q573.6 186 573.2 185.4Q572.7 184.7 571.8 184.7Q570.8 184.7 570.4 185.4Q569.9 186 569.9 187.1V188.8Q569.9 190 570.4 190.6Q570.8 191.3 571.8 191.3ZM577.3 192V191.1H578V184.8H577.3V183.9H580Q581.4 183.9 582.1 184.7Q582.8 185.4 582.8 186.9V189Q582.8 190.6 582.1 191.3Q581.4 192 580 192ZM579 191.1H579.8Q580.5 191.1 581 190.9Q581.4 190.7 581.7 190.3Q581.9 189.8 581.9 188.9V187Q581.9 186.2 581.7 185.7Q581.4 185.2 581 185Q580.5 184.8 579.8 184.8H579ZM585.8 192V183.9H590.7V184.8H586.8V187.5H590.6V188.4H586.8V191.1H590.7V192ZM594 192V183.9H594.9V191.1H599.1V192ZM604.9 192.2Q603.8 192.2 603.1 191.8Q602.4 191.4 602.1 190.7Q601.7 190.1 601.7 189.2V188.9H602.7V189.1Q602.7 190.2 603.3 190.7Q603.8 191.3 604.9 191.3Q605.8 191.3 606.2 190.9Q606.7 190.5 606.7 189.8V189.7Q606.7 189.1 606.2 188.8Q605.7 188.4 604.7 188.3Q603.5 188.1 602.8 187.6Q602.1 187.1 602.1 186.1V185.9Q602.1 185.3 602.4 184.8Q602.7 184.3 603.3 184.1Q603.9 183.8 604.7 183.8Q605.6 183.8 606.3 184.1Q606.9 184.5 607.2 185Q607.6 185.5 607.6 186.2V186.7H606.6V186.3Q606.6 185.7 606.3 185.4Q606.1 185 605.6 184.9Q605.2 184.7 604.7 184.7Q604.3 184.7 603.9 184.8Q603.5 185 603.3 185.3Q603 185.5 603 186V186Q603 186.7 603.6 187Q604.1 187.3 605.2 187.5Q606.4 187.7 607 188.2Q607.6 188.8 607.6 189.7V189.8Q607.6 190.9 606.9 191.5Q606.2 192.2 604.9 192.2Z"/>
<path fill="#4f46e5" d="M560.4 214V207.3H562L562.9 213.7H563L563.9 207.3H565.4V214H564.6V207.7H564.5L563.6 214H562.2L561.3 207.7H561.2V214ZM570.3 214.1Q569.2 214.1 568.6 213.4Q568 212.7 568 211.4V209.9Q568 208.7 568.6 207.9Q569.2 207.2 570.3 207.2Q571.4 207.2 572 207.9Q572.7 208.7 572.7 209.9V211.4Q572.7 212.7 572 213.4Q571.4 214.1 570.3 214.1ZM570.3 213.4Q571.1 213.4 571.5 212.9Q571.9 212.3 571.9 211.4V210Q571.9 209.1 571.5 208.5Q571.1 208 570.3 208Q569.6 208 569.2 208.5Q568.8 209.1 568.8 210V211.4Q568.8 212.3 569.2 212.9Q569.6 213.4 570.3 213.4ZM575.5 214V213.2H576.1V208.1H575.5V207.3H577.7Q578.9 207.3 579.5 207.9Q580.1 208.5 580.1 209.8V211.5Q580.1 212.8 579.5 213.4Q578.9 214 577.7 214ZM576.9 213.3H577.6Q578.2 213.3 578.5 213.1Q578.9 212.9 579.1 212.6Q579.3 212.2 579.3 211.5V209.9Q579.3 209.2 579.1 208.8Q578.9 208.4 578.5 208.2Q578.2 208.1 577.6 208.1H576.9ZM583.1 214V207.3H587.2V208.1H583.9V210.3H587.1V211H583.9V213.3H587.2V214ZM590.5 214V207.3H591.3V213.3H594.8V214Z"/>
<line x1="742.0" y1="176.0" x2="770.0" y2="176.0" stroke="#4f46e5" stroke-width="2"/>
<path d="M770.0 176.0 L761.0 171.0 L761.0 181.0 Z" fill="#4f46e5"/>
<rect x="774.0" y="124" width="196" height="104" rx="14" fill="#ffffff" stroke="#e4e4e7" stroke-width="1.2"/>
<rect x="792.0" y="140" width="22" height="2" fill="#4f46e5"/>
<path fill="#18181b" d="M793.2 170V167.4Q793.2 166 793.8 165.1Q794.3 164.2 795.3 163.7Q796.3 163.2 797.7 162.9Q798.7 162.7 799.2 162.4Q799.8 162.1 800 161.7Q800.2 161.2 800.2 160.7Q800.2 159.9 799.6 159.4Q799 158.8 798 158.8Q796.9 158.8 796.3 159.5Q795.6 160.1 795.6 161.3V162.1H793.1V161.1Q793.1 159.8 793.7 158.8Q794.3 157.7 795.4 157.1Q796.4 156.4 797.9 156.4Q799.5 156.4 800.6 157Q801.7 157.6 802.2 158.6Q802.7 159.5 802.7 160.6V160.8Q802.7 162.5 801.8 163.6Q800.8 164.7 798.7 165.2Q797.5 165.4 796.9 165.8Q796.2 166.1 796 166.5Q795.7 166.8 795.7 167.4V167.6H802.6V170ZM817.4 170V156.7H822.5Q823.9 156.7 824.8 157.2Q825.8 157.7 826.2 158.5Q826.7 159.3 826.7 160.4V160.8Q826.7 161.6 826.3 162.4Q825.8 163.1 824.9 163.4V163.8Q825.6 163.9 826 164.3Q826.4 164.7 826.4 165.4V170H823.9V166Q823.9 165.6 823.6 165.3Q823.4 165 822.8 165H820V170ZM820 162.6H822.3Q823.3 162.6 823.7 162.2Q824.2 161.7 824.2 161V160.7Q824.2 160.1 823.7 159.6Q823.3 159.1 822.3 159.1H820ZM829.6 170V156.7H838V159.1H832.2V162.1H837.8V164.5H832.2V167.6H838.3V170ZM843.6 170 840.6 156.7H843.2L845.8 168.7H846.1L848.7 156.7H851.3L848.3 170ZM853.5 170V167.6H856.7V159.1H853.5V156.7H862.4V159.1H859.2V167.6H862.4V170ZM865.7 170V156.7H874.1V159.1H868.2V162.1H873.9V164.5H868.2V167.6H874.4V170ZM876.8 170 876.3 156.7H878.6L878.9 166.8V168.5H879.4V166.8L880 156.7H884L884.6 166.8V168.5H885.1V166.8L885.4 156.7H887.7L887.2 170H882.8L882.2 159.9V158.1H881.8V159.9L881.2 170ZM894.2 170.3Q892.5 170.3 891.3 169.6Q890.1 169 889.5 167.9Q888.9 166.8 888.9 165.4V164.8H891.4V165.3Q891.4 166.5 892.1 167.2Q892.8 167.9 894.3 167.9Q895.4 167.9 896 167.4Q896.5 166.9 896.5 166.2Q896.5 165.8 896.3 165.4Q896.1 165.1 895.5 164.8Q895 164.5 894 164.3Q892.6 164.1 891.6 163.7Q890.6 163.2 890 162.4Q889.4 161.7 889.4 160.3V160.2Q889.4 159.2 889.9 158.3Q890.5 157.4 891.5 156.9Q892.6 156.4 894 156.4Q895.5 156.4 896.6 157Q897.7 157.6 898.3 158.5Q898.8 159.5 898.8 160.5V161.2H896.3V160.8Q896.3 160 895.7 159.4Q895.1 158.8 894 158.8Q893 158.8 892.5 159.2Q891.9 159.6 891.9 160.2Q891.9 160.9 892.5 161.3Q893.1 161.8 894.8 162.1Q896.9 162.4 898 163.3Q899.1 164.2 899.1 166V166.2Q899.1 168 897.8 169.2Q896.5 170.3 894.2 170.3Z"/>
<path fill="#52525b" d="M792.7 192V191.1H793.3V184.8H792.7V183.9H795.9Q797.1 183.9 797.7 184.5Q798.3 185.1 798.3 186V186.2Q798.3 186.8 797.9 187.3Q797.5 187.7 796.9 187.9V188Q797.5 188.2 797.9 188.6Q798.3 189.1 798.3 189.8V189.9Q798.3 190.8 797.7 191.4Q797.1 192 795.9 192ZM794.3 187.5H795.9Q796.6 187.5 797 187.2Q797.4 186.8 797.4 186.2V186.1Q797.4 185.5 796.9 185.2Q796.5 184.8 795.8 184.8H794.3ZM794.3 191.1H795.8Q796.5 191.1 796.9 190.8Q797.4 190.4 797.4 189.8V189.8Q797.4 189.1 797 188.8Q796.6 188.4 795.9 188.4H794.3ZM803.8 192.2Q802.4 192.2 801.7 191.3Q800.9 190.5 800.9 188.9V187.1Q800.9 185.5 801.7 184.7Q802.4 183.8 803.8 183.8Q805.1 183.8 805.8 184.7Q806.6 185.5 806.6 187.1V188.9Q806.6 190.5 805.8 191.3Q805.1 192.2 803.8 192.2ZM803.8 191.3Q804.7 191.3 805.2 190.6Q805.6 190 805.6 188.8V187.1Q805.6 186 805.2 185.4Q804.7 184.7 803.8 184.7Q802.8 184.7 802.4 185.4Q801.9 186 801.9 187.1V188.8Q801.9 190 802.4 190.6Q802.8 191.3 803.8 191.3ZM811.5 192V184.8H809.2V183.9H814.8V184.8H812.5V192ZM817.6 192V183.9H818.5V187.5H821.9V183.9H822.9V192H821.9V188.4H818.5V192ZM833.7 192V183.9H835.6L836.6 191.6H836.8L837.9 183.9H839.7V192H838.8V184.4H838.7L837.6 192H835.8L834.8 184.4H834.6V192ZM844.9 192.2Q843.7 192.2 842.9 191.4Q842.2 190.7 842.2 189.3V183.9H843.2V189.3Q843.2 190.3 843.6 190.8Q844.1 191.3 844.9 191.3Q845.8 191.3 846.3 190.8Q846.7 190.3 846.7 189.3V183.9H847.7V189.3Q847.7 190.7 847 191.4Q846.2 192.2 844.9 192.2ZM853.3 192.2Q852.3 192.2 851.6 191.8Q850.9 191.4 850.5 190.7Q850.2 190.1 850.2 189.2V188.9H851.1V189.1Q851.1 190.2 851.7 190.7Q852.3 191.3 853.3 191.3Q854.2 191.3 854.7 190.9Q855.2 190.5 855.2 189.8V189.7Q855.2 189.1 854.7 188.8Q854.2 188.4 853.2 188.3Q852 188.1 851.2 187.6Q850.5 187.1 850.5 186.1V185.9Q850.5 185.3 850.9 184.8Q851.2 184.3 851.8 184.1Q852.4 183.8 853.2 183.8Q854.1 183.8 854.7 184.1Q855.4 184.5 855.7 185Q856 185.5 856 186.2V186.7H855.1V186.3Q855.1 185.7 854.8 185.4Q854.6 185 854.1 184.9Q853.7 184.7 853.2 184.7Q852.7 184.7 852.4 184.8Q852 185 851.7 185.3Q851.5 185.5 851.5 186V186Q851.5 186.7 852 187Q852.6 187.3 853.7 187.5Q854.9 187.7 855.5 188.2Q856.1 188.8 856.1 189.7V189.8Q856.1 190.9 855.4 191.5Q854.7 192.2 853.3 192.2ZM860.9 192V184.8H858.6V183.9H864.3V184.8H861.9V192ZM874.6 192 877 183.9H878.8L881.2 192H880.2L879.6 190H876.2L875.6 192ZM876.4 189.1H879.4L878 184.4H877.8ZM883.6 192V183.9H886.5Q887.3 183.9 887.8 184.3Q888.4 184.6 888.7 185.1Q888.9 185.5 888.9 186.1V186.5Q888.9 187.1 888.7 187.6Q888.4 188.1 887.8 188.4Q887.3 188.7 886.5 188.7H884.6V192ZM884.6 187.8H886.4Q888 187.8 888 186.4V186.2Q888 185.6 887.6 185.2Q887.2 184.8 886.4 184.8H884.6ZM891.8 192V183.9H894.7Q895.5 183.9 896.1 184.3Q896.6 184.6 896.9 185.1Q897.2 185.5 897.2 186.1V186.5Q897.2 187.1 896.9 187.6Q896.6 188.1 896.1 188.4Q895.5 188.7 894.7 188.7H892.8V192ZM892.8 187.8H894.6Q896.2 187.8 896.2 186.4V186.2Q896.2 185.6 895.8 185.2Q895.4 184.8 894.6 184.8H892.8ZM900.1 192V183.9H902.9Q903.8 183.9 904.3 184.3Q904.9 184.6 905.1 185.1Q905.4 185.5 905.4 186.1V186.5Q905.4 186.9 905.2 187.4Q904.9 187.8 904.4 188.1V188.2Q904.7 188.3 904.9 188.5Q905.1 188.7 905.1 189.1V192H904.2V189.3Q904.2 189 904 188.8Q903.9 188.7 903.5 188.7H901V192ZM901 187.8H902.8Q904.4 187.8 904.4 186.4V186.2Q904.4 185.6 904 185.2Q903.6 184.8 902.8 184.8H901ZM910.9 192.2Q909.5 192.2 908.8 191.3Q908 190.5 908 188.9V187.1Q908 185.5 908.8 184.7Q909.5 183.8 910.9 183.8Q912.2 183.8 912.9 184.7Q913.7 185.5 913.7 187.1V188.9Q913.7 190.5 912.9 191.3Q912.2 192.2 910.9 192.2ZM910.9 191.3Q911.8 191.3 912.2 190.6Q912.7 190 912.7 188.8V187.1Q912.7 186 912.2 185.4Q911.8 184.7 910.9 184.7Q909.9 184.7 909.5 185.4Q909 186 909 187.1V188.8Q909 190 909.5 190.6Q909.9 191.3 910.9 191.3ZM918.2 192 915.9 183.9H916.9L919 191.6H919.2L921.3 183.9H922.3L920 192ZM924.9 192V183.9H929.8V184.8H925.9V187.5H929.7V188.4H925.9V191.1H929.8V192Z"/>
<path fill="#4f46e5" d="M792.4 214V207.3H794L794.9 213.7H795L795.9 207.3H797.4V214H796.6V207.7H796.5L795.6 214H794.2L793.3 207.7H793.2V214ZM802.3 214.1Q801.2 214.1 800.6 213.4Q800 212.7 800 211.4V209.9Q800 208.7 800.6 207.9Q801.2 207.2 802.3 207.2Q803.4 207.2 804 207.9Q804.7 208.7 804.7 209.9V211.4Q804.7 212.7 804 213.4Q803.4 214.1 802.3 214.1ZM802.3 213.4Q803.1 213.4 803.5 212.9Q803.9 212.3 803.9 211.4V210Q803.9 209.1 803.5 208.5Q803.1 208 802.3 208Q801.6 208 801.2 208.5Q800.8 209.1 800.8 210V211.4Q800.8 212.3 801.2 212.9Q801.6 213.4 802.3 213.4ZM807.5 214V213.2H808.1V208.1H807.5V207.3H809.7Q810.9 207.3 811.5 207.9Q812.1 208.5 812.1 209.8V211.5Q812.1 212.8 811.5 213.4Q810.9 214 809.7 214ZM808.9 213.3H809.6Q810.2 213.3 810.5 213.1Q810.9 212.9 811.1 212.6Q811.3 212.2 811.3 211.5V209.9Q811.3 209.2 811.1 208.8Q810.9 208.4 810.5 208.2Q810.2 208.1 809.6 208.1H808.9ZM815.1 214V207.3H819.2V208.1H815.9V210.3H819.1V211H815.9V213.3H819.2V214ZM822.5 214V207.3H823.3V213.3H826.8V214Z"/>
<line x1="974.0" y1="176.0" x2="1002.0" y2="176.0" stroke="#4f46e5" stroke-width="2"/>
<path d="M1002.0 176.0 L993.0 171.0 L993.0 181.0 Z" fill="#4f46e5"/>
<rect x="1006.0" y="124" width="196" height="104" rx="14" fill="#ffffff" stroke="#e4e4e7" stroke-width="1.2"/>
<rect x="1024.0" y="140" width="22" height="2" fill="#4f46e5"/>
<path fill="#18181b" d="M1030 170.3Q1028.3 170.3 1027.1 169.6Q1025.9 169 1025.3 167.9Q1024.7 166.8 1024.7 165.4V164.8H1027.2V165.3Q1027.2 166.5 1027.9 167.2Q1028.6 167.9 1030 167.9Q1031.2 167.9 1031.7 167.4Q1032.3 166.9 1032.3 166.2Q1032.3 165.8 1032.1 165.4Q1031.9 165.1 1031.3 164.8Q1030.8 164.5 1029.7 164.3Q1028.4 164.1 1027.4 163.7Q1026.3 163.2 1025.7 162.4Q1025.1 161.7 1025.1 160.3V160.2Q1025.1 159.2 1025.7 158.3Q1026.3 157.4 1027.3 156.9Q1028.4 156.4 1029.7 156.4Q1031.3 156.4 1032.4 157Q1033.5 157.6 1034 158.5Q1034.6 159.5 1034.6 160.5V161.2H1032.1V160.8Q1032.1 160 1031.5 159.4Q1030.9 158.8 1029.7 158.8Q1028.8 158.8 1028.2 159.2Q1027.7 159.6 1027.7 160.2Q1027.7 160.9 1028.3 161.3Q1028.9 161.8 1030.5 162.1Q1032.6 162.4 1033.7 163.3Q1034.8 164.2 1034.8 166V166.2Q1034.8 168 1033.5 169.2Q1032.2 170.3 1030 170.3ZM1037.2 170V156.7H1039.7V162.1H1044V156.7H1046.5V170H1044V164.5H1039.7V170ZM1049.4 170V167.6H1052.6V159.1H1049.4V156.7H1058.3V159.1H1055.1V167.6H1058.3V170ZM1061.5 170V156.7H1066.7Q1068 156.7 1068.9 157.3Q1069.8 157.8 1070.3 158.7Q1070.7 159.6 1070.7 160.6V161Q1070.7 162 1070.3 162.9Q1069.8 163.8 1068.9 164.4Q1068 165 1066.7 165H1064V170ZM1064 162.6H1066.4Q1067.2 162.6 1067.7 162.1Q1068.2 161.7 1068.2 161V160.7Q1068.2 160 1067.7 159.6Q1067.2 159.1 1066.4 159.1H1064Z"/>
<path fill="#52525b" d="M1024.5 192V183.9H1026.4L1027.5 191.6H1027.6L1028.7 183.9H1030.5V192H1029.6V184.4H1029.5L1028.4 192H1026.6L1025.6 184.4H1025.4V192ZM1033.3 192V183.9H1038.2V184.8H1034.3V187.5H1038.1V188.4H1034.3V191.1H1038.3V192Z"/>
<path fill="#059669" d="M1024.7 214V207.3H1025.5V210.3H1028.3V207.3H1029.1V214H1028.3V211H1025.5V214ZM1034.3 214.1Q1033.3 214.1 1032.7 213.5Q1032 212.9 1032 211.8V207.3H1032.8V211.8Q1032.8 212.6 1033.2 213Q1033.6 213.4 1034.3 213.4Q1035.1 213.4 1035.4 213Q1035.8 212.6 1035.8 211.8V207.3H1036.6V211.8Q1036.6 212.9 1036 213.5Q1035.4 214.1 1034.3 214.1ZM1039.3 214V207.3H1040.8L1041.7 213.7H1041.8L1042.7 207.3H1044.2V214H1043.5V207.7H1043.3L1042.5 214H1041L1040.1 207.7H1040V214ZM1046.4 214 1048.4 207.3H1049.9L1051.9 214H1051.1L1050.6 212.3H1047.7L1047.2 214ZM1047.9 211.6H1050.4L1049.2 207.7H1049.1ZM1054.3 214V207.3H1055.9L1057.9 213.7H1058V207.3H1058.8V214H1057.2L1055.3 207.7H1055.1V214Z"/>
<line x1="872.0" y1="230" x2="872.0" y2="296" stroke="#7c3aed" stroke-width="2"/>
<path d="M872.0 296 L867.0 287 L877.0 287 Z" fill="#7c3aed"/>
<rect x="754.0" y="298" width="236" height="92" rx="14" fill="#ffffff" stroke="#e4e4e7" stroke-width="1.2"/>
<rect x="772.0" y="314" width="22" height="2" fill="#4f46e5"/>
<path fill="#18181b" d="M772.4 344V330.7H776.8L777.6 340.7V342.6H778V340.7L778.8 330.7H783.2V344H780.9V335.1L781.2 332.1H780.7L779.7 344H776L774.9 332.1H774.5L774.7 335.1V344ZM785.6 344V330.7H794V333.1H788.1V336.1H793.8V338.5H788.1V341.6H794.2V344ZM796.5 344V330.7H800.9L801.6 340.7V342.6H802.1V340.7L802.9 330.7H807.3V344H805V335.1L805.2 332.1H804.8L803.8 344H800L799 332.1H798.5L798.8 335.1V344ZM813.9 344.3Q811.6 344.3 810.3 342.9Q809 341.5 809 338.8V335.9Q809 333.3 810.3 331.9Q811.6 330.4 813.9 330.4Q816.2 330.4 817.5 331.9Q818.8 333.3 818.8 335.9V338.8Q818.8 341.5 817.5 342.9Q816.2 344.3 813.9 344.3ZM813.9 342Q815.3 342 815.8 341.1Q816.3 340.3 816.3 339V335.7Q816.3 334.9 816 334.2Q815.8 333.5 815.3 333.1Q814.8 332.7 813.9 332.7Q813 332.7 812.5 333.1Q812 333.5 811.7 334.2Q811.5 334.9 811.5 335.7V339Q811.5 340.3 812 341.1Q812.5 342 813.9 342ZM821.5 344V330.7H826.6Q828 330.7 828.9 331.2Q829.8 331.7 830.3 332.5Q830.8 333.3 830.8 334.4V334.8Q830.8 335.6 830.3 336.4Q829.9 337.1 829 337.4V337.8Q829.7 337.9 830 338.3Q830.4 338.7 830.4 339.4V344H827.9V340Q827.9 339.6 827.7 339.3Q827.4 339 826.9 339H824V344ZM824 336.6H826.4Q827.3 336.6 827.8 336.2Q828.3 335.7 828.3 335V334.7Q828.3 334.1 827.8 333.6Q827.3 333.1 826.4 333.1H824ZM836.7 344V339.3H836.1L832.3 330.7H835L837.8 337H838.1L840.9 330.7H843.6L839.8 339.3H839.2V344Z"/>
<path fill="#52525b" d="M773 366V357.9H774V365.1H778.2V366ZM781.3 366V357.9H786.2V358.8H782.3V361.5H786.1V362.4H782.3V365.1H786.3V366ZM792.2 366.2Q791.1 366.2 790.4 365.8Q789.7 365.4 789.4 364.7Q789 364.1 789 363.2V362.9H790V363.1Q790 364.2 790.5 364.7Q791.1 365.3 792.2 365.3Q793.1 365.3 793.5 364.9Q794 364.5 794 363.8V363.7Q794 363.1 793.5 362.8Q793 362.4 792 362.3Q790.8 362.1 790.1 361.6Q789.3 361.1 789.3 360.1V359.9Q789.3 359.3 789.7 358.8Q790 358.3 790.6 358.1Q791.2 357.8 792 357.8Q792.9 357.8 793.5 358.1Q794.2 358.5 794.5 359Q794.9 359.5 794.9 360.2V360.7H793.9V360.3Q793.9 359.7 793.6 359.4Q793.4 359 792.9 358.9Q792.5 358.7 792 358.7Q791.5 358.7 791.2 358.8Q790.8 359 790.5 359.3Q790.3 359.5 790.3 360V360Q790.3 360.7 790.8 361Q791.4 361.3 792.5 361.5Q793.7 361.7 794.3 362.2Q794.9 362.8 794.9 363.7V363.8Q794.9 364.9 794.2 365.5Q793.5 366.2 792.2 366.2ZM800.4 366.2Q799.4 366.2 798.7 365.8Q798 365.4 797.6 364.7Q797.2 364.1 797.2 363.2V362.9H798.2V363.1Q798.2 364.2 798.8 364.7Q799.4 365.3 800.4 365.3Q801.3 365.3 801.7 364.9Q802.2 364.5 802.2 363.8V363.7Q802.2 363.1 801.7 362.8Q801.3 362.4 800.2 362.3Q799 362.1 798.3 361.6Q797.6 361.1 797.6 360.1V359.9Q797.6 359.3 797.9 358.8Q798.3 358.3 798.9 358.1Q799.5 357.8 800.2 357.8Q801.1 357.8 801.8 358.1Q802.4 358.5 802.8 359Q803.1 359.5 803.1 360.2V360.7H802.1V360.3Q802.1 359.7 801.9 359.4Q801.6 359 801.2 358.9Q800.7 358.7 800.2 358.7Q799.8 358.7 799.4 358.8Q799 359 798.8 359.3Q798.5 359.5 798.5 360V360Q798.5 360.7 799.1 361Q799.6 361.3 800.7 361.5Q802 361.7 802.6 362.2Q803.2 362.8 803.2 363.7V363.8Q803.2 364.9 802.5 365.5Q801.8 366.2 800.4 366.2ZM808.5 366.2Q807.1 366.2 806.4 365.3Q805.6 364.5 805.6 362.9V361.1Q805.6 359.5 806.4 358.7Q807.1 357.8 808.5 357.8Q809.8 357.8 810.6 358.7Q811.3 359.5 811.3 361.1V362.9Q811.3 364.5 810.6 365.3Q809.8 366.2 808.5 366.2ZM808.5 365.3Q809.4 365.3 809.9 364.6Q810.3 364 810.3 362.8V361.1Q810.3 360 809.9 359.4Q809.4 358.7 808.5 358.7Q807.5 358.7 807.1 359.4Q806.6 360 806.6 361.1V362.8Q806.6 364 807.1 364.6Q807.5 365.3 808.5 365.3ZM814 366V357.9H816L818.3 365.6H818.4V357.9H819.4V366H817.5L815.1 358.4H815V366ZM825.1 366.2Q824.1 366.2 823.4 365.8Q822.7 365.4 822.3 364.7Q821.9 364.1 821.9 363.2V362.9H822.9V363.1Q822.9 364.2 823.5 364.7Q824.1 365.3 825.1 365.3Q826 365.3 826.5 364.9Q826.9 364.5 826.9 363.8V363.7Q826.9 363.1 826.4 362.8Q826 362.4 824.9 362.3Q823.7 362.1 823 361.6Q822.3 361.1 822.3 360.1V359.9Q822.3 359.3 822.6 358.8Q823 358.3 823.6 358.1Q824.2 357.8 824.9 357.8Q825.9 357.8 826.5 358.1Q827.1 358.5 827.5 359Q827.8 359.5 827.8 360.2V360.7H826.8V360.3Q826.8 359.7 826.6 359.4Q826.3 359 825.9 358.9Q825.4 358.7 824.9 358.7Q824.5 358.7 824.1 358.8Q823.7 359 823.5 359.3Q823.3 359.5 823.3 360V360Q823.3 360.7 823.8 361Q824.3 361.3 825.4 361.5Q826.7 361.7 827.3 362.2Q827.9 362.8 827.9 363.7V363.8Q827.9 364.9 827.2 365.5Q826.5 366.2 825.1 366.2ZM841.4 362.8Q841.1 362.8 840.9 362.5Q840.6 362.3 840.6 362Q840.6 361.6 840.9 361.4Q841.1 361.2 841.4 361.2Q841.8 361.2 842 361.4Q842.2 361.6 842.2 362Q842.2 362.3 842 362.5Q841.8 362.8 841.4 362.8ZM855.4 366V357.9H858.2Q859.1 357.9 859.6 358.3Q860.2 358.6 860.4 359.1Q860.7 359.5 860.7 360.1V360.5Q860.7 361.1 860.4 361.6Q860.1 362.1 859.6 362.4Q859 362.7 858.2 362.7H856.3V366ZM856.3 361.8H858.1Q859.7 361.8 859.7 360.4V360.2Q859.7 359.6 859.3 359.2Q858.9 358.8 858.1 358.8H856.3ZM863.6 366V365.1H865.7V358.8H863.6V357.9H868.7V358.8H866.6V365.1H868.7V366ZM873.9 366V358.8H871.5V357.9H877.2V358.8H874.9V366ZM880.2 366V357.9H885.1V358.8H881.2V361.5H885.1V362.4H881.2V366ZM887.5 366 889.9 357.9H891.8L894.2 366H893.2L892.6 364H889.1L888.5 366ZM889.4 363.1H892.3L890.9 358.4H890.8ZM896.6 366V357.9H897.5V365.1H901.7V366ZM904.8 366V357.9H905.8V365.1H910V366ZM915.7 366.2Q914.7 366.2 914 365.8Q913.3 365.4 912.9 364.7Q912.6 364.1 912.6 363.2V362.9H913.5V363.1Q913.5 364.2 914.1 364.7Q914.7 365.3 915.7 365.3Q916.6 365.3 917.1 364.9Q917.5 364.5 917.5 363.8V363.7Q917.5 363.1 917.1 362.8Q916.6 362.4 915.6 362.3Q914.3 362.1 913.6 361.6Q912.9 361.1 912.9 360.1V359.9Q912.9 359.3 913.2 358.8Q913.6 358.3 914.2 358.1Q914.8 357.8 915.6 357.8Q916.5 357.8 917.1 358.1Q917.8 358.5 918.1 359Q918.4 359.5 918.4 360.2V360.7H917.5V360.3Q917.5 359.7 917.2 359.4Q916.9 359 916.5 358.9Q916.1 358.7 915.6 358.7Q915.1 358.7 914.7 358.8Q914.3 359 914.1 359.3Q913.9 359.5 913.9 360V360Q913.9 360.7 914.4 361Q915 361.3 916 361.5Q917.3 361.7 917.9 362.2Q918.5 362.8 918.5 363.7V363.8Q918.5 364.9 917.8 365.5Q917.1 366.2 915.7 366.2Z"/>
<circle cx="970.0" cy="318" r="5" fill="#059669"/>
<path fill="#52525b" d="M78.4 326 82.6 314.4H84.4L88.6 326H87.1L84.6 319.1Q84.4 318.5 84.1 317.5Q83.8 316.5 83.3 315.1H83.6Q83.2 316.6 82.9 317.5Q82.6 318.5 82.4 319.1L80 326ZM80.5 322.8V321.5H86.5V322.8ZM94.8 326V317.3H96.1L96.1 319.2H96Q96.2 318.5 96.6 318Q97 317.6 97.5 317.3Q98 317.1 98.6 317.1Q99.5 317.1 100.1 317.7Q100.7 318.3 100.9 319.2H100.7Q100.9 318.6 101.3 318.1Q101.7 317.6 102.3 317.4Q102.9 317.1 103.6 317.1Q104.3 317.1 105 317.4Q105.6 317.8 105.9 318.4Q106.3 319.1 106.3 320.1V326H104.9V320.1Q104.9 319.2 104.4 318.8Q103.9 318.4 103.1 318.4Q102.6 318.4 102.1 318.6Q101.7 318.9 101.5 319.3Q101.2 319.7 101.2 320.3V326H99.8V320Q99.8 319.3 99.4 318.8Q98.9 318.4 98.1 318.4Q97.6 318.4 97.2 318.6Q96.7 318.9 96.5 319.3Q96.2 319.8 96.2 320.5V326ZM112.3 326.2Q111.2 326.2 110.3 325.6Q109.4 325.1 108.9 324Q108.4 323 108.4 321.7Q108.4 320.3 108.9 319.3Q109.4 318.3 110.3 317.7Q111.2 317.2 112.3 317.2Q113.5 317.2 114.4 317.7Q115.3 318.3 115.8 319.3Q116.3 320.3 116.3 321.7Q116.3 323 115.8 324Q115.3 325.1 114.4 325.6Q113.5 326.2 112.3 326.2ZM112.3 324.9Q113.2 324.9 113.8 324.5Q114.4 324 114.6 323.3Q114.9 322.5 114.9 321.7Q114.9 320.8 114.6 320.1Q114.4 319.3 113.8 318.9Q113.2 318.4 112.3 318.4Q111.5 318.4 110.9 318.9Q110.3 319.3 110.1 320.1Q109.8 320.8 109.8 321.7Q109.8 322.5 110.1 323.3Q110.3 324 110.9 324.5Q111.5 324.9 112.3 324.9ZM121.7 326.2Q120.6 326.2 119.7 325.6Q118.9 325.1 118.4 324.1Q118 323 118 321.7Q118 320.3 118.4 319.3Q118.9 318.2 119.7 317.7Q120.6 317.2 121.7 317.2Q122.5 317.2 123 317.4Q123.5 317.7 123.8 318.1Q124.1 318.4 124.2 318.7H124.3V314.4H125.7V326H124.4V324.6H124.2Q124.1 324.9 123.8 325.3Q123.5 325.6 123 325.9Q122.5 326.2 121.7 326.2ZM121.9 324.9Q122.7 324.9 123.2 324.5Q123.8 324.1 124 323.4Q124.3 322.6 124.3 321.6Q124.3 320.7 124 319.9Q123.8 319.2 123.2 318.8Q122.7 318.4 121.9 318.4Q121 318.4 120.5 318.8Q119.9 319.3 119.7 320Q119.4 320.7 119.4 321.6Q119.4 322.6 119.7 323.3Q119.9 324 120.5 324.5Q121.1 324.9 121.9 324.9ZM131.9 326.2Q130.6 326.2 129.7 325.6Q128.8 325.1 128.3 324.1Q127.8 323 127.8 321.7Q127.8 320.4 128.2 319.3Q128.7 318.3 129.6 317.7Q130.5 317.2 131.7 317.2Q132.4 317.2 133.1 317.4Q133.7 317.6 134.3 318.1Q134.8 318.6 135.2 319.5Q135.5 320.3 135.5 321.5V322.1H128.7V320.9H134.7L134.1 321.4Q134.1 320.5 133.8 319.8Q133.5 319.2 133 318.8Q132.5 318.4 131.7 318.4Q130.9 318.4 130.3 318.8Q129.8 319.2 129.5 319.8Q129.2 320.4 129.2 321.1V321.9Q129.2 322.9 129.5 323.6Q129.9 324.2 130.5 324.6Q131.1 324.9 131.9 324.9Q132.4 324.9 132.8 324.8Q133.2 324.6 133.5 324.3Q133.8 324 134 323.6L135.4 324Q135.1 324.6 134.7 325.1Q134.2 325.6 133.5 325.9Q132.8 326.2 131.9 326.2ZM138.9 314.4V326H137.5V314.4ZM149.4 326.2Q148.2 326.2 147.4 325.6Q146.5 325.1 146 324Q145.5 323 145.5 321.7Q145.5 320.3 146 319.3Q146.5 318.3 147.4 317.7Q148.2 317.2 149.4 317.2Q150.1 317.2 150.6 317.3Q151.2 317.5 151.7 317.8Q152.1 318.1 152.5 318.6Q152.8 319 153 319.6L151.6 320Q151.5 319.6 151.3 319.3Q151.1 319.1 150.9 318.8Q150.6 318.6 150.2 318.5Q149.9 318.4 149.4 318.4Q148.6 318.4 148 318.9Q147.4 319.3 147.2 320.1Q146.9 320.8 146.9 321.7Q146.9 322.5 147.2 323.3Q147.4 324 148 324.5Q148.6 324.9 149.4 324.9Q149.9 324.9 150.2 324.8Q150.6 324.7 150.9 324.5Q151.2 324.3 151.4 324Q151.6 323.7 151.7 323.3L153 323.7Q152.8 324.3 152.5 324.7Q152.2 325.2 151.7 325.5Q151.2 325.9 150.6 326Q150.1 326.2 149.4 326.2ZM157.5 326.2Q156.6 326.2 156 325.9Q155.3 325.6 154.9 325Q154.5 324.4 154.5 323.5Q154.5 322.8 154.8 322.3Q155.1 321.8 155.6 321.6Q156.1 321.3 156.7 321.2Q157.3 321 157.9 320.9Q158.7 320.8 159.2 320.8Q159.7 320.7 159.9 320.6Q160.1 320.5 160.1 320.1V320.1Q160.1 319.6 159.9 319.2Q159.7 318.8 159.3 318.6Q158.9 318.4 158.3 318.4Q157.7 318.4 157.2 318.6Q156.8 318.8 156.5 319.1Q156.2 319.4 156.1 319.7L154.7 319.2Q155.1 318.4 155.6 318Q156.2 317.5 156.9 317.3Q157.6 317.2 158.3 317.2Q158.7 317.2 159.3 317.3Q159.8 317.4 160.3 317.7Q160.9 318 161.2 318.6Q161.5 319.2 161.5 320.2V326H160.2V324.8H160.1Q159.9 325.1 159.6 325.4Q159.3 325.8 158.7 326Q158.2 326.2 157.5 326.2ZM157.7 325Q158.5 325 159 324.7Q159.6 324.4 159.9 323.9Q160.1 323.4 160.1 322.8V321.6Q160 321.7 159.8 321.8Q159.5 321.9 159.1 322Q158.7 322 158.4 322.1Q158 322.1 157.8 322.1Q157.3 322.2 156.9 322.3Q156.4 322.5 156.2 322.8Q155.9 323.1 155.9 323.6Q155.9 324 156.1 324.3Q156.4 324.6 156.8 324.8Q157.2 325 157.7 325ZM165.4 320.8V326H164V317.3H165.4L165.4 319.4H165.2Q165.6 318.2 166.3 317.7Q167 317.2 168 317.2Q168.9 317.2 169.6 317.5Q170.2 317.9 170.6 318.6Q171 319.3 171 320.5V326H169.6V320.6Q169.6 319.6 169.1 319Q168.5 318.4 167.6 318.4Q167 318.4 166.5 318.7Q166 319 165.7 319.5Q165.4 320 165.4 320.8ZM182 317.3V318.5H176.9V317.3ZM178.6 326V316.1Q178.6 315.3 179 314.8Q179.3 314.3 179.9 314.1Q180.5 313.8 181.1 313.8Q181.6 313.8 181.9 313.9Q182.2 314 182.4 314L182 315.2Q181.9 315.2 181.7 315.2Q181.5 315.1 181.2 315.1Q180.6 315.1 180.3 315.4Q180 315.8 180 316.4V326ZM185.3 314.4V326H183.9V314.4ZM190.2 326.2Q189.4 326.2 188.7 325.9Q188 325.6 187.6 325Q187.2 324.4 187.2 323.5Q187.2 322.8 187.5 322.3Q187.8 321.8 188.3 321.6Q188.8 321.3 189.4 321.2Q190 321 190.6 320.9Q191.4 320.8 191.9 320.8Q192.4 320.7 192.6 320.6Q192.9 320.5 192.9 320.1V320.1Q192.9 319.6 192.7 319.2Q192.5 318.8 192.1 318.6Q191.6 318.4 191 318.4Q190.4 318.4 190 318.6Q189.5 318.8 189.2 319.1Q189 319.4 188.8 319.7L187.5 319.2Q187.8 318.4 188.4 318Q189 317.5 189.6 317.3Q190.3 317.2 191 317.2Q191.4 317.2 192 317.3Q192.6 317.4 193.1 317.7Q193.6 318 193.9 318.6Q194.3 319.2 194.3 320.2V326H192.9V324.8H192.8Q192.6 325.1 192.3 325.4Q192 325.8 191.5 326Q190.9 326.2 190.2 326.2ZM190.4 325Q191.2 325 191.8 324.7Q192.3 324.4 192.6 323.9Q192.9 323.4 192.9 322.8V321.6Q192.8 321.7 192.5 321.8Q192.2 321.9 191.8 322Q191.5 322 191.1 322.1Q190.8 322.1 190.6 322.1Q190.1 322.2 189.6 322.3Q189.2 322.5 188.9 322.8Q188.6 323.1 188.6 323.6Q188.6 324 188.9 324.3Q189.1 324.6 189.5 324.8Q189.9 325 190.4 325ZM200.3 329.5Q199.3 329.5 198.6 329.2Q197.9 329 197.4 328.6Q197 328.1 196.7 327.7L197.8 326.9Q198 327.2 198.3 327.5Q198.6 327.8 199 328Q199.5 328.2 200.3 328.2Q201.3 328.2 202 327.7Q202.7 327.2 202.7 326.1V324.4H202.5Q202.4 324.6 202.1 325Q201.9 325.3 201.4 325.6Q200.9 325.9 200 325.9Q199 325.9 198.1 325.4Q197.3 324.9 196.8 323.9Q196.3 323 196.3 321.6Q196.3 320.2 196.8 319.2Q197.3 318.2 198.1 317.7Q199 317.2 200 317.2Q200.9 317.2 201.4 317.4Q201.9 317.7 202.2 318.1Q202.4 318.4 202.6 318.7H202.7V317.3H204.1V326.2Q204.1 327.4 203.6 328.1Q203.1 328.8 202.2 329.1Q201.3 329.5 200.3 329.5ZM200.2 324.6Q201 324.6 201.6 324.2Q202.1 323.9 202.4 323.2Q202.7 322.5 202.7 321.6Q202.7 320.6 202.4 319.9Q202.1 319.2 201.6 318.8Q201 318.4 200.2 318.4Q199.4 318.4 198.9 318.8Q198.3 319.3 198 320Q197.8 320.7 197.8 321.6Q197.8 322.5 198 323.1Q198.3 323.8 198.9 324.2Q199.4 324.6 200.2 324.6ZM213.5 326.2Q212.7 326.2 212 325.9Q211.3 325.6 210.9 325Q210.5 324.4 210.5 323.5Q210.5 322.8 210.8 322.3Q211.1 321.8 211.6 321.6Q212.1 321.3 212.7 321.2Q213.3 321 213.9 320.9Q214.7 320.8 215.2 320.8Q215.7 320.7 215.9 320.6Q216.2 320.5 216.2 320.1V320.1Q216.2 319.6 216 319.2Q215.8 318.8 215.4 318.6Q214.9 318.4 214.3 318.4Q213.7 318.4 213.3 318.6Q212.8 318.8 212.5 319.1Q212.3 319.4 212.1 319.7L210.8 319.2Q211.1 318.4 211.7 318Q212.2 317.5 212.9 317.3Q213.6 317.2 214.3 317.2Q214.7 317.2 215.3 317.3Q215.9 317.4 216.4 317.7Q216.9 318 217.2 318.6Q217.6 319.2 217.6 320.2V326H216.2V324.8H216.1Q215.9 325.1 215.6 325.4Q215.3 325.8 214.8 326Q214.2 326.2 213.5 326.2ZM213.7 325Q214.5 325 215.1 324.7Q215.6 324.4 215.9 323.9Q216.2 323.4 216.2 322.8V321.6Q216.1 321.7 215.8 321.8Q215.5 321.9 215.1 322Q214.8 322 214.4 322.1Q214.1 322.1 213.9 322.1Q213.4 322.2 212.9 322.3Q212.5 322.5 212.2 322.8Q211.9 323.1 211.9 323.6Q211.9 324 212.2 324.3Q212.4 324.6 212.8 324.8Q213.2 325 213.7 325ZM224.5 326V317.3H225.9V318.6H226Q226.2 317.9 226.9 317.5Q227.5 317.1 228.3 317.1Q228.4 317.1 228.6 317.1Q228.8 317.2 229 317.2V318.6Q228.9 318.6 228.7 318.5Q228.4 318.5 228.1 318.5Q227.5 318.5 227 318.8Q226.5 319 226.2 319.5Q225.9 319.9 225.9 320.5V326ZM230.6 326V317.3H232V326ZM231.3 315.8Q230.9 315.8 230.6 315.6Q230.3 315.3 230.3 314.9Q230.3 314.5 230.6 314.2Q230.9 314 231.3 314Q231.7 314 232 314.2Q232.3 314.5 232.3 314.9Q232.3 315.3 232 315.6Q231.7 315.8 231.3 315.8ZM237.4 326.2Q236.5 326.2 235.8 325.9Q235.1 325.7 234.7 325.1Q234.2 324.6 234 323.9L235.4 323.6Q235.6 324.3 236.1 324.6Q236.6 325 237.4 325Q238.3 325 238.8 324.6Q239.4 324.2 239.4 323.6Q239.4 323.2 239.1 322.9Q238.8 322.6 238.1 322.4L236.7 322.1Q235.5 321.8 234.9 321.2Q234.3 320.6 234.3 319.7Q234.3 319 234.7 318.4Q235.2 317.8 235.9 317.5Q236.6 317.2 237.5 317.2Q238.4 317.2 239.1 317.4Q239.7 317.7 240.1 318.2Q240.5 318.6 240.7 319.3L239.4 319.6Q239.2 319.1 238.8 318.7Q238.4 318.4 237.6 318.4Q236.8 318.4 236.3 318.7Q235.7 319.1 235.7 319.6Q235.7 320.1 236.1 320.4Q236.4 320.7 237.2 320.9L238.5 321.2Q239.7 321.5 240.3 322.1Q240.9 322.6 240.9 323.5Q240.9 324.3 240.4 324.9Q240 325.5 239.2 325.8Q238.4 326.2 237.4 326.2ZM244.2 322.9V321.1H244.5L248.2 317.3H249.9L245.9 321.4H245.7ZM242.9 326V314.4H244.3V326ZM248.4 326 245.1 321.7 246.1 320.7 250.2 326ZM252.7 326.1Q252.3 326.1 252 325.8Q251.7 325.5 251.7 325Q251.7 324.6 252 324.3Q252.3 324 252.7 324Q253.2 324 253.5 324.3Q253.8 324.6 253.8 325Q253.8 325.5 253.5 325.8Q253.2 326.1 252.7 326.1ZM262.4 314.4V326H260.9V314.4ZM268.5 317.3V318.5H264V317.3ZM265.3 315.2H266.7V323.7Q266.7 324.3 266.9 324.6Q267.2 324.9 267.7 324.9Q267.9 324.9 268.1 324.8Q268.3 324.8 268.5 324.8L268.8 326Q268.5 326 268.3 326.1Q268 326.1 267.7 326.1Q266.6 326.1 265.9 325.5Q265.3 324.9 265.3 323.8ZM278.4 326.2Q277.2 326.2 276.3 325.6Q275.4 325.1 274.9 324Q274.4 323 274.4 321.7Q274.4 320.3 274.9 319.3Q275.4 318.3 276.3 317.7Q277.2 317.2 278.4 317.2Q279 317.2 279.6 317.3Q280.1 317.5 280.6 317.8Q281 318.1 281.4 318.6Q281.7 319 281.9 319.6L280.5 320Q280.5 319.6 280.3 319.3Q280.1 319.1 279.8 318.8Q279.5 318.6 279.1 318.5Q278.8 318.4 278.4 318.4Q277.5 318.4 276.9 318.9Q276.4 319.3 276.1 320.1Q275.8 320.8 275.8 321.7Q275.8 322.5 276.1 323.3Q276.4 324 276.9 324.5Q277.5 324.9 278.4 324.9Q278.8 324.9 279.2 324.8Q279.5 324.7 279.8 324.5Q280.1 324.3 280.3 324Q280.5 323.7 280.6 323.3L281.9 323.7Q281.8 324.3 281.4 324.7Q281.1 325.2 280.6 325.5Q280.1 325.9 279.6 326Q279 326.2 278.4 326.2ZM286.4 326.2Q285.6 326.2 284.9 325.9Q284.2 325.6 283.8 325Q283.4 324.4 283.4 323.5Q283.4 322.8 283.7 322.3Q284 321.8 284.5 321.6Q285 321.3 285.6 321.2Q286.2 321 286.8 320.9Q287.6 320.8 288.1 320.8Q288.6 320.7 288.8 320.6Q289.1 320.5 289.1 320.1V320.1Q289.1 319.6 288.9 319.2Q288.6 318.8 288.2 318.6Q287.8 318.4 287.2 318.4Q286.6 318.4 286.2 318.6Q285.7 318.8 285.4 319.1Q285.2 319.4 285 319.7L283.7 319.2Q284 318.4 284.6 318Q285.1 317.5 285.8 317.3Q286.5 317.2 287.2 317.2Q287.6 317.2 288.2 317.3Q288.7 317.4 289.3 317.7Q289.8 318 290.1 318.6Q290.5 319.2 290.5 320.2V326H289.1V324.8H289Q288.8 325.1 288.5 325.4Q288.2 325.8 287.7 326Q287.1 326.2 286.4 326.2ZM286.6 325Q287.4 325 288 324.7Q288.5 324.4 288.8 323.9Q289.1 323.4 289.1 322.8V321.6Q289 321.7 288.7 321.8Q288.4 321.9 288 322Q287.6 322 287.3 322.1Q287 322.1 286.8 322.1Q286.2 322.2 285.8 322.3Q285.4 322.5 285.1 322.8Q284.8 323.1 284.8 323.6Q284.8 324 285.1 324.3Q285.3 324.6 285.7 324.8Q286.1 325 286.6 325ZM294.3 320.8V326H292.9V317.3H294.3L294.3 319.4H294.1Q294.5 318.2 295.2 317.7Q296 317.2 297 317.2Q297.8 317.2 298.5 317.5Q299.2 317.9 299.5 318.6Q299.9 319.3 299.9 320.5V326H298.5V320.6Q298.5 319.6 298 319Q297.5 318.4 296.5 318.4Q295.9 318.4 295.4 318.7Q294.9 319 294.6 319.5Q294.3 320 294.3 320.8ZM303.8 320.8V326H302.4V317.3H303.7L303.7 319.4H303.5Q303.9 318.2 304.7 317.7Q305.4 317.2 306.4 317.2Q307.3 317.2 308 317.5Q308.6 317.9 309 318.6Q309.4 319.3 309.4 320.5V326H308V320.6Q308 319.6 307.4 319Q306.9 318.4 306 318.4Q305.4 318.4 304.9 318.7Q304.4 319 304.1 319.5Q303.8 320 303.8 320.8ZM315.4 326.2Q314.2 326.2 313.3 325.6Q312.4 325.1 311.9 324Q311.4 323 311.4 321.7Q311.4 320.3 311.9 319.3Q312.4 318.3 313.3 317.7Q314.2 317.2 315.4 317.2Q316.6 317.2 317.5 317.7Q318.4 318.3 318.9 319.3Q319.4 320.3 319.4 321.7Q319.4 323 318.9 324Q318.4 325.1 317.5 325.6Q316.6 326.2 315.4 326.2ZM315.4 324.9Q316.3 324.9 316.8 324.5Q317.4 324 317.7 323.3Q318 322.5 318 321.7Q318 320.8 317.7 320.1Q317.4 319.3 316.8 318.9Q316.3 318.4 315.4 318.4Q314.5 318.4 314 318.9Q313.4 319.3 313.1 320.1Q312.8 320.8 312.8 321.7Q312.8 322.5 313.1 323.3Q313.4 324 314 324.5Q314.5 324.9 315.4 324.9ZM324.9 317.3V318.5H320.4V317.3ZM321.7 315.2H323.1V323.7Q323.1 324.3 323.3 324.6Q323.5 324.9 324.1 324.9Q324.2 324.9 324.4 324.8Q324.6 324.8 324.8 324.8L325.1 326Q324.9 326 324.6 326.1Q324.3 326.1 324.1 326.1Q322.9 326.1 322.3 325.5Q321.7 324.9 321.7 323.8ZM334.7 326.2Q333.5 326.2 332.6 325.6Q331.7 325.1 331.2 324Q330.7 323 330.7 321.7Q330.7 320.3 331.2 319.3Q331.7 318.3 332.6 317.7Q333.5 317.2 334.7 317.2Q335.4 317.2 335.9 317.3Q336.5 317.5 336.9 317.8Q337.4 318.1 337.7 318.6Q338.1 319 338.3 319.6L336.9 320Q336.8 319.6 336.6 319.3Q336.4 319.1 336.1 318.8Q335.9 318.6 335.5 318.5Q335.1 318.4 334.7 318.4Q333.8 318.4 333.3 318.9Q332.7 319.3 332.4 320.1Q332.2 320.8 332.2 321.7Q332.2 322.5 332.4 323.3Q332.7 324 333.3 324.5Q333.8 324.9 334.7 324.9Q335.2 324.9 335.5 324.8Q335.9 324.7 336.2 324.5Q336.5 324.3 336.7 324Q336.9 323.7 336.9 323.3L338.3 323.7Q338.1 324.3 337.8 324.7Q337.4 325.2 337 325.5Q336.5 325.9 335.9 326Q335.4 326.2 334.7 326.2ZM341.7 314.4V326H340.3V314.4ZM347.9 326.2Q346.6 326.2 345.7 325.6Q344.8 325.1 344.3 324.1Q343.8 323 343.8 321.7Q343.8 320.4 344.2 319.3Q344.7 318.3 345.6 317.7Q346.5 317.2 347.7 317.2Q348.4 317.2 349.1 317.4Q349.7 317.6 350.3 318.1Q350.8 318.6 351.2 319.5Q351.5 320.3 351.5 321.5V322.1H344.7V320.9H350.7L350.1 321.4Q350.1 320.5 349.8 319.8Q349.5 319.2 349 318.8Q348.5 318.4 347.7 318.4Q346.9 318.4 346.3 318.8Q345.8 319.2 345.5 319.8Q345.2 320.4 345.2 321.1V321.9Q345.2 322.9 345.5 323.6Q345.9 324.2 346.5 324.6Q347.1 324.9 347.9 324.9Q348.4 324.9 348.8 324.8Q349.2 324.6 349.5 324.3Q349.8 324 350 323.6L351.4 324Q351.1 324.6 350.7 325.1Q350.2 325.6 349.5 325.9Q348.8 326.2 347.9 326.2ZM356 326.2Q355.1 326.2 354.4 325.9Q353.8 325.6 353.4 325Q353 324.4 353 323.5Q353 322.8 353.3 322.3Q353.6 321.8 354.1 321.6Q354.6 321.3 355.2 321.2Q355.8 321 356.4 320.9Q357.2 320.8 357.6 320.8Q358.1 320.7 358.4 320.6Q358.6 320.5 358.6 320.1V320.1Q358.6 319.6 358.4 319.2Q358.2 318.8 357.8 318.6Q357.4 318.4 356.8 318.4Q356.2 318.4 355.7 318.6Q355.3 318.8 355 319.1Q354.7 319.4 354.6 319.7L353.2 319.2Q353.6 318.4 354.1 318Q354.7 317.5 355.4 317.3Q356.1 317.2 356.8 317.2Q357.2 317.2 357.7 317.3Q358.3 317.4 358.8 317.7Q359.3 318 359.7 318.6Q360 319.2 360 320.2V326H358.6V324.8H358.5Q358.4 325.1 358.1 325.4Q357.7 325.8 357.2 326Q356.7 326.2 356 326.2ZM356.2 325Q357 325 357.5 324.7Q358.1 324.4 358.3 323.9Q358.6 323.4 358.6 322.8V321.6Q358.5 321.7 358.2 321.8Q358 321.9 357.6 322Q357.2 322 356.9 322.1Q356.5 322.1 356.3 322.1Q355.8 322.2 355.4 322.3Q354.9 322.5 354.7 322.8Q354.4 323.1 354.4 323.6Q354.4 324 354.6 324.3Q354.9 324.6 355.3 324.8Q355.7 325 356.2 325ZM362.5 326V317.3H363.9V318.6H363.9Q364.2 317.9 364.8 317.5Q365.4 317.1 366.2 317.1Q366.4 317.1 366.6 317.1Q366.8 317.2 366.9 317.2V318.6Q366.9 318.6 366.6 318.5Q366.4 318.5 366.1 318.5Q365.5 318.5 365 318.8Q364.5 319 364.2 319.5Q363.9 319.9 363.9 320.5V326ZM376.6 326.2Q375.4 326.2 374.5 325.6Q373.6 325.1 373.1 324Q372.6 323 372.6 321.7Q372.6 320.3 373.1 319.3Q373.6 318.3 374.5 317.7Q375.4 317.2 376.6 317.2Q377.8 317.2 378.7 317.7Q379.6 318.3 380.1 319.3Q380.6 320.3 380.6 321.7Q380.6 323 380.1 324Q379.6 325.1 378.7 325.6Q377.8 326.2 376.6 326.2ZM376.6 324.9Q377.5 324.9 378 324.5Q378.6 324 378.9 323.3Q379.1 322.5 379.1 321.7Q379.1 320.8 378.9 320.1Q378.6 319.3 378 318.9Q377.5 318.4 376.6 318.4Q375.7 318.4 375.1 318.9Q374.6 319.3 374.3 320.1Q374 320.8 374 321.7Q374 322.5 374.3 323.3Q374.6 324 375.1 324.5Q375.7 324.9 376.6 324.9ZM384 320.8V326H382.6V317.3H384L384 319.4H383.8Q384.2 318.2 384.9 317.7Q385.6 317.2 386.6 317.2Q387.5 317.2 388.2 317.5Q388.9 317.9 389.2 318.6Q389.6 319.3 389.6 320.5V326H388.2V320.6Q388.2 319.6 387.7 319Q387.1 318.4 386.2 318.4Q385.6 318.4 385.1 318.7Q384.6 319 384.3 319.5Q384 320 384 320.8ZM395.7 326.2Q394.5 326.2 393.6 325.6Q392.6 325.1 392.1 324.1Q391.6 323 391.6 321.7Q391.6 320.4 392.1 319.3Q392.6 318.3 393.5 317.7Q394.4 317.2 395.6 317.2Q396.3 317.2 396.9 317.4Q397.6 317.6 398.2 318.1Q398.7 318.6 399 319.5Q399.4 320.3 399.4 321.5V322.1H392.6V320.9H398.6L398 321.4Q398 320.5 397.7 319.8Q397.4 319.2 396.9 318.8Q396.4 318.4 395.6 318.4Q394.8 318.4 394.2 318.8Q393.7 319.2 393.4 319.8Q393.1 320.4 393.1 321.1V321.9Q393.1 322.9 393.4 323.6Q393.7 324.2 394.3 324.6Q394.9 324.9 395.7 324.9Q396.3 324.9 396.7 324.8Q397.1 324.6 397.4 324.3Q397.7 324 397.9 323.6L399.2 324Q399 324.6 398.5 325.1Q398.1 325.6 397.3 325.9Q396.6 326.2 395.7 326.2ZM402.5 326.1Q402 326.1 401.7 325.8Q401.4 325.5 401.4 325Q401.4 324.6 401.7 324.3Q402 324 402.5 324Q402.9 324 403.2 324.3Q403.5 324.6 403.5 325Q403.5 325.5 403.2 325.8Q402.9 326.1 402.5 326.1Z"/>
<path fill="#52525b" d="M78.4 354 82.6 342.4H84.4L88.6 354H87.1L84.6 347.1Q84.4 346.5 84.1 345.5Q83.8 344.5 83.3 343.1H83.6Q83.2 344.6 82.9 345.5Q82.6 346.5 82.4 347.1L80 354ZM80.5 350.8V349.5H86.5V350.8ZM94.8 354V345.3H96.1L96.1 347.2H96Q96.2 346.5 96.6 346Q97 345.6 97.5 345.3Q98 345.1 98.6 345.1Q99.5 345.1 100.1 345.7Q100.7 346.3 100.9 347.2H100.7Q100.9 346.6 101.3 346.1Q101.7 345.6 102.3 345.4Q102.9 345.1 103.6 345.1Q104.3 345.1 105 345.4Q105.6 345.8 105.9 346.4Q106.3 347.1 106.3 348.1V354H104.9V348.1Q104.9 347.2 104.4 346.8Q103.9 346.4 103.1 346.4Q102.6 346.4 102.1 346.6Q101.7 346.9 101.5 347.3Q101.2 347.7 101.2 348.3V354H99.8V348Q99.8 347.3 99.4 346.8Q98.9 346.4 98.1 346.4Q97.6 346.4 97.2 346.6Q96.7 346.9 96.5 347.3Q96.2 347.8 96.2 348.5V354ZM108.8 354V345.3H110.2V354ZM109.5 343.8Q109.1 343.8 108.8 343.6Q108.5 343.3 108.5 342.9Q108.5 342.5 108.8 342.2Q109.1 342 109.5 342Q109.9 342 110.2 342.2Q110.5 342.5 110.5 342.9Q110.5 343.3 110.2 343.6Q109.9 343.8 109.5 343.8ZM115.6 354.2Q114.7 354.2 114 353.9Q113.3 353.7 112.9 353.1Q112.4 352.6 112.3 351.9L113.6 351.6Q113.8 352.3 114.3 352.6Q114.8 353 115.6 353Q116.5 353 117.1 352.6Q117.6 352.2 117.6 351.6Q117.6 351.2 117.3 350.9Q117 350.6 116.3 350.4L114.9 350.1Q113.7 349.8 113.1 349.2Q112.5 348.6 112.5 347.7Q112.5 347 113 346.4Q113.4 345.8 114.1 345.5Q114.8 345.2 115.8 345.2Q116.7 345.2 117.3 345.4Q117.9 345.7 118.3 346.2Q118.7 346.6 118.9 347.3L117.6 347.6Q117.5 347.1 117 346.7Q116.6 346.4 115.8 346.4Q115 346.4 114.5 346.7Q114 347.1 114 347.6Q114 348.1 114.3 348.4Q114.7 348.7 115.4 348.9L116.8 349.2Q117.9 349.5 118.5 350.1Q119.1 350.6 119.1 351.5Q119.1 352.3 118.6 352.9Q118.2 353.5 117.4 353.8Q116.7 354.2 115.6 354.2ZM124.1 354.2Q123.2 354.2 122.5 353.9Q121.8 353.7 121.3 353.1Q120.9 352.6 120.7 351.9L122.1 351.6Q122.2 352.3 122.8 352.6Q123.3 353 124.1 353Q125 353 125.5 352.6Q126.1 352.2 126.1 351.6Q126.1 351.2 125.7 350.9Q125.4 350.6 124.8 350.4L123.3 350.1Q122.1 349.8 121.6 349.2Q121 348.6 121 347.7Q121 347 121.4 346.4Q121.8 345.8 122.6 345.5Q123.3 345.2 124.2 345.2Q125.1 345.2 125.7 345.4Q126.4 345.7 126.8 346.2Q127.2 346.6 127.4 347.3L126.1 347.6Q125.9 347.1 125.5 346.7Q125.1 346.4 124.2 346.4Q123.4 346.4 122.9 346.7Q122.4 347.1 122.4 347.6Q122.4 348.1 122.8 348.4Q123.1 348.7 123.9 348.9L125.2 349.2Q126.4 349.5 127 350.1Q127.5 350.6 127.5 351.5Q127.5 352.3 127.1 352.9Q126.7 353.5 125.9 353.8Q125.1 354.2 124.1 354.2ZM129.6 354V345.3H131V354ZM130.3 343.8Q129.9 343.8 129.6 343.6Q129.3 343.3 129.3 342.9Q129.3 342.5 129.6 342.2Q129.9 342 130.3 342Q130.7 342 131 342.2Q131.2 342.5 131.2 342.9Q131.2 343.3 131 343.6Q130.7 343.8 130.3 343.8ZM134.8 348.8V354H133.4V345.3H134.8L134.8 347.4H134.6Q135 346.2 135.7 345.7Q136.5 345.2 137.5 345.2Q138.3 345.2 139 345.5Q139.7 345.9 140 346.6Q140.4 347.3 140.4 348.5V354H139V348.6Q139 347.6 138.5 347Q138 346.4 137 346.4Q136.4 346.4 135.9 346.7Q135.4 347 135.1 347.5Q134.8 348 134.8 348.8ZM146.4 357.5Q145.5 357.5 144.7 357.2Q144 357 143.6 356.6Q143.1 356.1 142.8 355.7L144 354.9Q144.2 355.2 144.4 355.5Q144.7 355.8 145.2 356Q145.7 356.2 146.4 356.2Q147.5 356.2 148.1 355.7Q148.8 355.2 148.8 354.1V352.4H148.7Q148.5 352.6 148.3 353Q148 353.3 147.5 353.6Q147 353.9 146.1 353.9Q145.1 353.9 144.3 353.4Q143.4 352.9 142.9 351.9Q142.5 351 142.5 349.6Q142.5 348.2 142.9 347.2Q143.4 346.2 144.3 345.7Q145.1 345.2 146.2 345.2Q147 345.2 147.5 345.4Q148 345.7 148.3 346.1Q148.6 346.4 148.7 346.7H148.9V345.3H150.2V354.2Q150.2 355.4 149.7 356.1Q149.2 356.8 148.3 357.1Q147.5 357.5 146.4 357.5ZM146.4 352.6Q147.2 352.6 147.7 352.2Q148.3 351.9 148.6 351.2Q148.8 350.5 148.8 349.6Q148.8 348.6 148.6 347.9Q148.3 347.2 147.7 346.8Q147.2 346.4 146.4 346.4Q145.6 346.4 145 346.8Q144.4 347.3 144.2 348Q143.9 348.7 143.9 349.6Q143.9 350.5 144.2 351.1Q144.5 351.8 145 352.2Q145.6 352.6 146.4 352.6ZM157.2 354V345.3H158.6V346.6H158.6Q158.9 345.9 159.5 345.5Q160.1 345.1 160.9 345.1Q161.1 345.1 161.3 345.1Q161.5 345.2 161.6 345.2V346.6Q161.6 346.6 161.3 346.5Q161.1 346.5 160.8 346.5Q160.2 346.5 159.7 346.8Q159.2 347 158.9 347.5Q158.6 347.9 158.6 348.5V354ZM166.9 354.2Q165.6 354.2 164.7 353.6Q163.8 353.1 163.3 352.1Q162.8 351 162.8 349.7Q162.8 348.4 163.3 347.3Q163.8 346.3 164.7 345.7Q165.5 345.2 166.7 345.2Q167.4 345.2 168.1 345.4Q168.8 345.6 169.3 346.1Q169.9 346.6 170.2 347.5Q170.5 348.3 170.5 349.5V350.1H163.8V348.9H169.8L169.1 349.4Q169.1 348.5 168.8 347.8Q168.6 347.2 168 346.8Q167.5 346.4 166.7 346.4Q165.9 346.4 165.4 346.8Q164.8 347.2 164.5 347.8Q164.2 348.4 164.2 349.1V349.9Q164.2 350.9 164.6 351.6Q164.9 352.2 165.5 352.6Q166.1 352.9 166.9 352.9Q167.4 352.9 167.8 352.8Q168.3 352.6 168.6 352.3Q168.9 352 169 351.6L170.4 352Q170.2 352.6 169.7 353.1Q169.2 353.6 168.5 353.9Q167.8 354.2 166.9 354.2ZM175.1 354 171.7 345.3H173.3L175.1 350.4Q175.4 351.2 175.6 352.1Q175.8 352.9 176.1 353.6H175.6Q175.8 352.9 176 352.1Q176.2 351.2 176.5 350.4L178.3 345.3H179.9L176.5 354ZM181.5 354V345.3H182.9V354ZM182.2 343.8Q181.9 343.8 181.6 343.6Q181.3 343.3 181.3 342.9Q181.3 342.5 181.6 342.2Q181.9 342 182.2 342Q182.7 342 182.9 342.2Q183.2 342.5 183.2 342.9Q183.2 343.3 182.9 343.6Q182.7 343.8 182.2 343.8ZM189.1 354.2Q187.8 354.2 186.9 353.6Q186 353.1 185.5 352.1Q185 351 185 349.7Q185 348.4 185.5 347.3Q186 346.3 186.8 345.7Q187.7 345.2 188.9 345.2Q189.6 345.2 190.3 345.4Q191 345.6 191.5 346.1Q192.1 346.6 192.4 347.5Q192.7 348.3 192.7 349.5V350.1H185.9V348.9H192L191.3 349.4Q191.3 348.5 191 347.8Q190.8 347.2 190.2 346.8Q189.7 346.4 188.9 346.4Q188.1 346.4 187.6 346.8Q187 347.2 186.7 347.8Q186.4 348.4 186.4 349.1V349.9Q186.4 350.9 186.8 351.6Q187.1 352.2 187.7 352.6Q188.3 352.9 189.1 352.9Q189.6 352.9 190 352.8Q190.5 352.6 190.8 352.3Q191.1 352 191.2 351.6L192.6 352Q192.4 352.6 191.9 353.1Q191.4 353.6 190.7 353.9Q190 354.2 189.1 354.2ZM196.7 354 194.1 345.3H195.5L196.6 349.1Q196.8 349.9 197.1 350.8Q197.3 351.8 197.6 353.1H197.3Q197.6 351.9 197.8 350.9Q198 349.9 198.3 349.1L199.3 345.3H200.8L201.9 349.1Q202.1 349.9 202.3 350.9Q202.5 351.9 202.8 353.1H202.5Q202.8 351.9 203 350.9Q203.3 349.9 203.5 349.1L204.6 345.3H206.1L203.4 354H202L200.9 350Q200.7 349.4 200.5 348.8Q200.4 348.2 200.2 347.5Q200.1 346.9 199.9 346.2H200.2Q200.1 346.9 199.9 347.5Q199.7 348.2 199.6 348.8Q199.4 349.5 199.2 350L198.1 354ZM211.5 354.2Q210.2 354.2 209.3 353.6Q208.4 353.1 207.9 352.1Q207.4 351 207.4 349.7Q207.4 348.4 207.9 347.3Q208.4 346.3 209.3 345.7Q210.2 345.2 211.3 345.2Q212 345.2 212.7 345.4Q213.4 345.6 213.9 346.1Q214.5 346.6 214.8 347.5Q215.1 348.3 215.1 349.5V350.1H208.4V348.9H214.4L213.7 349.4Q213.7 348.5 213.5 347.8Q213.2 347.2 212.7 346.8Q212.1 346.4 211.3 346.4Q210.6 346.4 210 346.8Q209.4 347.2 209.1 347.8Q208.8 348.4 208.8 349.1V349.9Q208.8 350.9 209.2 351.6Q209.5 352.2 210.1 352.6Q210.7 352.9 211.5 352.9Q212 352.9 212.5 352.8Q212.9 352.6 213.2 352.3Q213.5 352 213.6 351.6L215 352Q214.8 352.6 214.3 353.1Q213.8 353.6 213.1 353.9Q212.4 354.2 211.5 354.2ZM217.2 354V345.3H218.5V346.6H218.6Q218.9 345.9 219.5 345.5Q220.1 345.1 220.9 345.1Q221 345.1 221.3 345.1Q221.5 345.2 221.6 345.2V346.6Q221.5 346.6 221.3 346.5Q221 346.5 220.8 346.5Q220.1 346.5 219.6 346.8Q219.1 347 218.9 347.5Q218.6 347.9 218.6 348.5V354ZM227.7 354V345.3H229.1L229.1 347.2H229Q229.1 346.5 229.5 346Q229.9 345.6 230.4 345.3Q230.9 345.1 231.5 345.1Q232.5 345.1 233.1 345.7Q233.6 346.3 233.8 347.2H233.6Q233.8 346.6 234.2 346.1Q234.6 345.6 235.2 345.4Q235.8 345.1 236.5 345.1Q237.2 345.1 237.9 345.4Q238.5 345.8 238.9 346.4Q239.2 347.1 239.2 348.1V354H237.8V348.1Q237.8 347.2 237.3 346.8Q236.8 346.4 236.1 346.4Q235.5 346.4 235.1 346.6Q234.6 346.9 234.4 347.3Q234.2 347.7 234.2 348.3V354H232.8V348Q232.8 347.3 232.3 346.8Q231.8 346.4 231 346.4Q230.5 346.4 230.1 346.6Q229.6 346.9 229.4 347.3Q229.1 347.8 229.1 348.5V354ZM245.4 354.2Q244.1 354.2 243.2 353.6Q242.3 353.1 241.8 352.1Q241.3 351 241.3 349.7Q241.3 348.4 241.8 347.3Q242.2 346.3 243.1 345.7Q244 345.2 245.2 345.2Q245.9 345.2 246.6 345.4Q247.3 345.6 247.8 346.1Q248.4 346.6 248.7 347.5Q249 348.3 249 349.5V350.1H242.2V348.9H248.3L247.6 349.4Q247.6 348.5 247.3 347.8Q247.1 347.2 246.5 346.8Q246 346.4 245.2 346.4Q244.4 346.4 243.9 346.8Q243.3 347.2 243 347.8Q242.7 348.4 242.7 349.1V349.9Q242.7 350.9 243 351.6Q243.4 352.2 244 352.6Q244.6 352.9 245.4 352.9Q245.9 352.9 246.3 352.8Q246.7 352.6 247 352.3Q247.4 352 247.5 351.6L248.9 352Q248.7 352.6 248.2 353.1Q247.7 353.6 247 353.9Q246.3 354.2 245.4 354.2ZM253.5 354.2Q252.6 354.2 252 353.9Q251.3 353.6 250.9 353Q250.5 352.4 250.5 351.5Q250.5 350.8 250.8 350.3Q251.1 349.8 251.6 349.6Q252.1 349.3 252.7 349.2Q253.3 349 253.9 348.9Q254.7 348.8 255.2 348.8Q255.7 348.7 255.9 348.6Q256.1 348.5 256.1 348.1V348.1Q256.1 347.6 255.9 347.2Q255.7 346.8 255.3 346.6Q254.9 346.4 254.3 346.4Q253.7 346.4 253.2 346.6Q252.8 346.8 252.5 347.1Q252.2 347.4 252.1 347.7L250.8 347.2Q251.1 346.4 251.7 346Q252.2 345.5 252.9 345.3Q253.6 345.2 254.3 345.2Q254.7 345.2 255.3 345.3Q255.8 345.4 256.3 345.7Q256.9 346 257.2 346.6Q257.5 347.2 257.5 348.2V354H256.2V352.8H256.1Q255.9 353.1 255.6 353.4Q255.3 353.8 254.7 354Q254.2 354.2 253.5 354.2ZM253.7 353Q254.5 353 255 352.7Q255.6 352.4 255.9 351.9Q256.1 351.4 256.1 350.8V349.6Q256.1 349.7 255.8 349.8Q255.5 349.9 255.1 350Q254.7 350 254.4 350.1Q254 350.1 253.8 350.1Q253.3 350.2 252.9 350.3Q252.4 350.5 252.2 350.8Q251.9 351.1 251.9 351.6Q251.9 352 252.1 352.3Q252.4 352.6 252.8 352.8Q253.2 353 253.7 353ZM261.4 348.8V354H260V345.3H261.4L261.4 347.4H261.2Q261.6 346.2 262.3 345.7Q263.1 345.2 264 345.2Q264.9 345.2 265.6 345.5Q266.3 345.9 266.6 346.6Q267 347.3 267 348.5V354H265.6V348.6Q265.6 347.6 265.1 347Q264.5 346.4 263.6 346.4Q263 346.4 262.5 346.7Q262 347 261.7 347.5Q261.4 348 261.4 348.8ZM272.4 354.2Q271.5 354.2 270.8 353.9Q270.1 353.7 269.7 353.1Q269.2 352.6 269.1 351.9L270.4 351.6Q270.6 352.3 271.1 352.6Q271.6 353 272.4 353Q273.3 353 273.9 352.6Q274.4 352.2 274.4 351.6Q274.4 351.2 274.1 350.9Q273.8 350.6 273.1 350.4L271.7 350.1Q270.5 349.8 269.9 349.2Q269.3 348.6 269.3 347.7Q269.3 347 269.8 346.4Q270.2 345.8 270.9 345.5Q271.6 345.2 272.6 345.2Q273.5 345.2 274.1 345.4Q274.7 345.7 275.1 346.2Q275.5 346.6 275.7 347.3L274.4 347.6Q274.3 347.1 273.8 346.7Q273.4 346.4 272.6 346.4Q271.8 346.4 271.3 346.7Q270.8 347.1 270.8 347.6Q270.8 348.1 271.1 348.4Q271.5 348.7 272.2 348.9L273.6 349.2Q274.7 349.5 275.3 350.1Q275.9 350.6 275.9 351.5Q275.9 352.3 275.4 352.9Q275 353.5 274.2 353.8Q273.5 354.2 272.4 354.2ZM282.6 354V342.4H286.7Q287.9 342.4 288.7 342.8Q289.5 343.2 289.9 343.9Q290.3 344.6 290.3 345.4Q290.3 346.2 290 346.7Q289.8 347.2 289.3 347.5Q288.9 347.8 288.4 347.9V348Q288.9 348 289.5 348.4Q290 348.7 290.4 349.4Q290.7 350 290.7 350.9Q290.7 351.8 290.3 352.5Q289.9 353.2 289.1 353.6Q288.2 354 286.8 354ZM284.1 352.7H286.8Q288.2 352.7 288.7 352.2Q289.3 351.6 289.3 350.9Q289.3 350.3 289 349.8Q288.7 349.3 288.2 349Q287.6 348.7 286.9 348.7H284.1ZM284.1 347.5H286.6Q287.3 347.5 287.8 347.2Q288.3 347 288.6 346.5Q288.9 346.1 288.9 345.5Q288.9 344.7 288.3 344.2Q287.8 343.7 286.7 343.7H284.1ZM293.1 354V342.4H294.5V352.7H299.9V354ZM306.8 354.2Q305.3 354.2 304.2 353.4Q303 352.7 302.3 351.4Q301.6 350 301.6 348.2Q301.6 346.3 302.3 345Q303 343.7 304.2 342.9Q305.3 342.2 306.8 342.2Q308.3 342.2 309.5 342.9Q310.6 343.7 311.3 345Q312 346.3 312 348.2Q312 350 311.3 351.4Q310.6 352.7 309.5 353.4Q308.3 354.2 306.8 354.2ZM306.8 352.8Q307.9 352.8 308.7 352.3Q309.5 351.7 310 350.7Q310.5 349.7 310.5 348.2Q310.5 346.7 310 345.7Q309.5 344.6 308.7 344.1Q307.9 343.6 306.8 343.6Q305.8 343.6 304.9 344.1Q304.1 344.6 303.6 345.7Q303.1 346.7 303.1 348.2Q303.1 349.7 303.6 350.7Q304.1 351.7 304.9 352.2Q305.8 352.8 306.8 352.8ZM319 354.2Q317.6 354.2 316.4 353.4Q315.2 352.7 314.6 351.4Q313.9 350 313.9 348.2Q313.9 346.3 314.6 345Q315.2 343.7 316.4 342.9Q317.6 342.2 319 342.2Q319.9 342.2 320.7 342.5Q321.5 342.7 322.1 343.2Q322.8 343.7 323.2 344.4Q323.6 345.1 323.7 346H322.3Q322.1 345.4 321.8 345Q321.5 344.5 321.1 344.2Q320.7 343.9 320.1 343.7Q319.6 343.6 319 343.6Q318 343.6 317.2 344.1Q316.3 344.6 315.8 345.7Q315.3 346.7 315.3 348.2Q315.3 349.7 315.8 350.7Q316.3 351.7 317.2 352.3Q318 352.8 319 352.8Q319.6 352.8 320.1 352.6Q320.7 352.5 321.1 352.2Q321.5 351.8 321.8 351.4Q322.1 350.9 322.3 350.3H323.7Q323.6 351.2 323.2 351.9Q322.8 352.6 322.1 353.1Q321.5 353.6 320.7 353.9Q319.9 354.2 319 354.2ZM327 350.7V349.1Q327.4 348.5 327.8 348Q328.2 347.5 328.6 347.1Q329.1 346.6 329.5 346.1L333 342.4H334.9L329.9 347.7L329.9 347.7ZM326 354V342.4H327.5V346.3L327.5 348.9L327.5 349.6V354ZM333.2 354 329 348.1 329.9 346.9 334.9 354ZM336.8 354V342.4H343.9V343.7H338.3V347.5H343.5V348.8H338.3V352.7H343.9V354ZM350 354H347.2V352.7H349.9Q351.4 352.7 352.3 352.1Q353.2 351.6 353.7 350.6Q354.1 349.6 354.1 348.2Q354.1 346.8 353.7 345.8Q353.2 344.8 352.3 344.2Q351.4 343.7 350.1 343.7H347.1V342.4H350.2Q351.9 342.4 353.1 343.1Q354.3 343.8 354.9 345.1Q355.6 346.4 355.6 348.2Q355.6 350 354.9 351.3Q354.3 352.6 353 353.3Q351.8 354 350 354ZM347.9 342.4V354H346.4V342.4ZM357.5 356.8 358.2 352.4H359.8L358.6 356.8ZM368.3 348.8V354H366.9V345.3H368.2L368.2 347.4H368Q368.4 346.2 369.2 345.7Q369.9 345.2 370.9 345.2Q371.8 345.2 372.5 345.5Q373.1 345.9 373.5 346.6Q373.9 347.3 373.9 348.5V354H372.5V348.6Q372.5 347.6 371.9 347Q371.4 346.4 370.5 346.4Q369.9 346.4 369.4 346.7Q368.9 347 368.6 347.5Q368.3 348 368.3 348.8ZM379.9 354.2Q378.7 354.2 377.8 353.6Q376.9 353.1 376.4 352Q375.9 351 375.9 349.7Q375.9 348.3 376.4 347.3Q376.9 346.3 377.8 345.7Q378.7 345.2 379.9 345.2Q381.1 345.2 382 345.7Q382.9 346.3 383.4 347.3Q383.9 348.3 383.9 349.7Q383.9 351 383.4 352Q382.9 353.1 382 353.6Q381.1 354.2 379.9 354.2ZM379.9 352.9Q380.8 352.9 381.3 352.5Q381.9 352 382.2 351.3Q382.5 350.5 382.5 349.7Q382.5 348.8 382.2 348.1Q381.9 347.3 381.3 346.9Q380.8 346.4 379.9 346.4Q379 346.4 378.4 346.9Q377.9 347.3 377.6 348.1Q377.3 348.8 377.3 349.7Q377.3 350.5 377.6 351.3Q377.9 352 378.4 352.5Q379 352.9 379.9 352.9ZM389.4 345.3V346.5H384.8V345.3ZM386.2 343.2H387.6V351.7Q387.6 352.3 387.8 352.6Q388 352.9 388.6 352.9Q388.7 352.9 388.9 352.8Q389.1 352.8 389.3 352.8L389.6 354Q389.4 354 389.1 354.1Q388.8 354.1 388.6 354.1Q387.4 354.1 386.8 353.5Q386.2 352.9 386.2 351.8ZM398.6 354.2Q397.7 354.2 397 353.9Q396.3 353.7 395.9 353.1Q395.4 352.6 395.3 351.9L396.6 351.6Q396.8 352.3 397.3 352.6Q397.8 353 398.6 353Q399.5 353 400.1 352.6Q400.6 352.2 400.6 351.6Q400.6 351.2 400.3 350.9Q400 350.6 399.3 350.4L397.9 350.1Q396.7 349.8 396.1 349.2Q395.5 348.6 395.5 347.7Q395.5 347 396 346.4Q396.4 345.8 397.1 345.5Q397.8 345.2 398.8 345.2Q399.7 345.2 400.3 345.4Q400.9 345.7 401.3 346.2Q401.7 346.6 401.9 347.3L400.6 347.6Q400.5 347.1 400 346.7Q399.6 346.4 398.8 346.4Q398 346.4 397.5 346.7Q397 347.1 397 347.6Q397 348.1 397.3 348.4Q397.7 348.7 398.4 348.9L399.7 349.2Q400.9 349.5 401.5 350.1Q402.1 350.6 402.1 351.5Q402.1 352.3 401.6 352.9Q401.2 353.5 400.4 353.8Q399.6 354.2 398.6 354.2ZM405.4 350.9V349.1H405.7L409.4 345.3H411.2L407.1 349.4H407ZM404.1 354V342.4H405.5V354ZM409.6 354 406.3 349.7 407.3 348.7 411.4 354ZM412.9 354V345.3H414.3V354ZM413.6 343.8Q413.2 343.8 412.9 343.6Q412.6 343.3 412.6 342.9Q412.6 342.5 412.9 342.2Q413.2 342 413.6 342Q414 342 414.3 342.2Q414.6 342.5 414.6 342.9Q414.6 343.3 414.3 343.6Q414 343.8 413.6 343.8ZM416.8 357.3V345.3H418.1V346.7H418.3Q418.4 346.4 418.7 346.1Q419 345.7 419.5 345.4Q420 345.2 420.8 345.2Q421.9 345.2 422.7 345.7Q423.6 346.2 424 347.3Q424.5 348.3 424.5 349.7Q424.5 351 424 352.1Q423.6 353.1 422.7 353.6Q421.9 354.2 420.8 354.2Q420 354.2 419.5 353.9Q419 353.6 418.7 353.3Q418.4 352.9 418.3 352.6H418.2V357.3ZM420.6 352.9Q421.4 352.9 422 352.5Q422.5 352 422.8 351.3Q423.1 350.6 423.1 349.6Q423.1 348.7 422.8 348Q422.5 347.3 422 346.8Q421.4 346.4 420.6 346.4Q419.8 346.4 419.2 346.8Q418.7 347.2 418.4 347.9Q418.1 348.7 418.1 349.6Q418.1 350.6 418.4 351.4Q418.7 352.1 419.3 352.5Q419.8 352.9 420.6 352.9ZM426.6 357.3V345.3H427.9V346.7H428.1Q428.2 346.4 428.5 346.1Q428.8 345.7 429.2 345.4Q429.8 345.2 430.6 345.2Q431.7 345.2 432.5 345.7Q433.4 346.2 433.8 347.3Q434.3 348.3 434.3 349.7Q434.3 351 433.8 352.1Q433.4 353.1 432.5 353.6Q431.7 354.2 430.6 354.2Q429.8 354.2 429.3 353.9Q428.8 353.6 428.5 353.3Q428.2 352.9 428.1 352.6H428V357.3ZM430.4 352.9Q431.2 352.9 431.8 352.5Q432.3 352 432.6 351.3Q432.9 350.6 432.9 349.6Q432.9 348.7 432.6 348Q432.3 347.3 431.8 346.8Q431.2 346.4 430.4 346.4Q429.6 346.4 429 346.8Q428.5 347.2 428.2 347.9Q427.9 348.7 427.9 349.6Q427.9 350.6 428.2 351.4Q428.5 352.1 429.1 352.5Q429.6 352.9 430.4 352.9ZM440 354.2Q438.8 354.2 437.8 353.6Q436.9 353.1 436.4 352.1Q435.9 351 435.9 349.7Q435.9 348.4 436.4 347.3Q436.9 346.3 437.8 345.7Q438.7 345.2 439.9 345.2Q440.6 345.2 441.2 345.4Q441.9 345.6 442.5 346.1Q443 346.6 443.3 347.5Q443.7 348.3 443.7 349.5V350.1H436.9V348.9H442.9L442.2 349.4Q442.2 348.5 442 347.8Q441.7 347.2 441.2 346.8Q440.6 346.4 439.9 346.4Q439.1 346.4 438.5 346.8Q437.9 347.2 437.6 347.8Q437.4 348.4 437.4 349.1V349.9Q437.4 350.9 437.7 351.6Q438 352.2 438.6 352.6Q439.2 352.9 440 352.9Q440.5 352.9 441 352.8Q441.4 352.6 441.7 352.3Q442 352 442.2 351.6L443.5 352Q443.3 352.6 442.8 353.1Q442.4 353.6 441.6 353.9Q440.9 354.2 440 354.2ZM449 354.2Q447.9 354.2 447 353.6Q446.2 353.1 445.7 352.1Q445.3 351 445.3 349.7Q445.3 348.3 445.7 347.3Q446.2 346.2 447 345.7Q447.9 345.2 449 345.2Q449.8 345.2 450.3 345.4Q450.8 345.7 451.1 346.1Q451.4 346.4 451.5 346.7H451.6V342.4H453V354H451.6V352.6H451.5Q451.4 352.9 451.1 353.3Q450.8 353.6 450.3 353.9Q449.8 354.2 449 354.2ZM449.2 352.9Q450 352.9 450.5 352.5Q451.1 352.1 451.3 351.4Q451.6 350.6 451.6 349.6Q451.6 348.7 451.3 347.9Q451.1 347.2 450.5 346.8Q450 346.4 449.2 346.4Q448.3 346.4 447.8 346.8Q447.2 347.3 447 348Q446.7 348.7 446.7 349.6Q446.7 350.6 447 351.3Q447.2 352 447.8 352.5Q448.4 352.9 449.2 352.9ZM456.5 354.1Q456.1 354.1 455.8 353.8Q455.5 353.5 455.5 353Q455.5 352.6 455.8 352.3Q456.1 352 456.5 352Q457 352 457.3 352.3Q457.6 352.6 457.6 353Q457.6 353.5 457.3 353.8Q457 354.1 456.5 354.1Z"/>
<path fill="#52525b" d="M81.6 382 78.4 370.4H79.9L81.8 377.5Q81.9 378.1 82 378.7Q82.2 379.2 82.3 379.9Q82.4 380.5 82.5 381.1H82.4Q82.5 380.5 82.6 379.9Q82.7 379.2 82.9 378.7Q83 378.1 83.2 377.5L85 370.4H86.7L88.6 377.5Q88.8 378.1 88.9 378.7Q89 379.2 89.2 379.9Q89.3 380.5 89.4 381.1H89.2Q89.3 380.5 89.4 379.9Q89.6 379.2 89.7 378.7Q89.9 378.1 90 377.5L91.8 370.4H93.4L90.2 382H88.4L86.4 374.6Q86.2 373.9 86.1 373.1Q85.9 372.2 85.7 371.1H86Q85.9 372.1 85.7 373Q85.5 373.8 85.3 374.6L83.3 382ZM96.4 376.8V382H95V370.4H96.4V375.4H96.2Q96.6 374.2 97.3 373.7Q98 373.2 99 373.2Q99.9 373.2 100.6 373.5Q101.2 373.9 101.6 374.6Q102 375.3 102 376.5V382H100.6V376.6Q100.6 375.6 100.1 375Q99.5 374.4 98.6 374.4Q98 374.4 97.5 374.7Q97 375 96.7 375.5Q96.4 376 96.4 376.8ZM108.1 382.2Q106.9 382.2 105.9 381.6Q105 381.1 104.5 380.1Q104 379 104 377.7Q104 376.4 104.5 375.3Q105 374.3 105.9 373.7Q106.8 373.2 108 373.2Q108.7 373.2 109.3 373.4Q110 373.6 110.6 374.1Q111.1 374.6 111.4 375.5Q111.8 376.3 111.8 377.5V378.1H105V376.9H111L110.4 377.4Q110.4 376.5 110.1 375.8Q109.8 375.2 109.3 374.8Q108.8 374.4 108 374.4Q107.2 374.4 106.6 374.8Q106.1 375.2 105.8 375.8Q105.5 376.4 105.5 377.1V377.9Q105.5 378.9 105.8 379.6Q106.1 380.2 106.7 380.6Q107.3 380.9 108.1 380.9Q108.7 380.9 109.1 380.8Q109.5 380.6 109.8 380.3Q110.1 380 110.3 379.6L111.6 380Q111.4 380.6 110.9 381.1Q110.5 381.6 109.7 381.9Q109 382.2 108.1 382.2ZM115.2 376.8V382H113.8V373.3H115.1L115.1 375.4H115Q115.4 374.2 116.1 373.7Q116.8 373.2 117.8 373.2Q118.7 373.2 119.4 373.5Q120 373.9 120.4 374.6Q120.8 375.3 120.8 376.5V382H119.4V376.6Q119.4 375.6 118.8 375Q118.3 374.4 117.4 374.4Q116.8 374.4 116.3 374.7Q115.8 375 115.5 375.5Q115.2 376 115.2 376.8ZM130.2 382.2Q129.4 382.2 128.7 381.9Q128 381.6 127.6 381Q127.2 380.4 127.2 379.5Q127.2 378.8 127.5 378.3Q127.8 377.8 128.3 377.6Q128.8 377.3 129.4 377.2Q130 377 130.6 376.9Q131.4 376.8 131.9 376.8Q132.4 376.7 132.6 376.6Q132.9 376.5 132.9 376.1V376.1Q132.9 375.6 132.6 375.2Q132.4 374.8 132 374.6Q131.6 374.4 131 374.4Q130.4 374.4 130 374.6Q129.5 374.8 129.2 375.1Q129 375.4 128.8 375.7L127.5 375.2Q127.8 374.4 128.4 374Q128.9 373.5 129.6 373.3Q130.3 373.2 131 373.2Q131.4 373.2 132 373.3Q132.5 373.4 133.1 373.7Q133.6 374 133.9 374.6Q134.3 375.2 134.3 376.2V382H132.9V380.8H132.8Q132.6 381.1 132.3 381.4Q132 381.8 131.5 382Q130.9 382.2 130.2 382.2ZM130.4 381Q131.2 381 131.8 380.7Q132.3 380.4 132.6 379.9Q132.9 379.4 132.9 378.8V377.6Q132.8 377.7 132.5 377.8Q132.2 377.9 131.8 378Q131.4 378 131.1 378.1Q130.8 378.1 130.5 378.1Q130 378.2 129.6 378.3Q129.2 378.5 128.9 378.8Q128.6 379.1 128.6 379.6Q128.6 380 128.9 380.3Q129.1 380.6 129.5 380.8Q129.9 381 130.4 381ZM141.2 382V373.3H142.6L142.6 375.2H142.5Q142.7 374.5 143.1 374Q143.4 373.6 144 373.3Q144.5 373.1 145 373.1Q146 373.1 146.6 373.7Q147.2 374.3 147.4 375.2H147.2Q147.3 374.6 147.7 374.1Q148.1 373.6 148.7 373.4Q149.3 373.1 150 373.1Q150.8 373.1 151.4 373.4Q152 373.8 152.4 374.4Q152.8 375.1 152.8 376.1V382H151.4V376.1Q151.4 375.2 150.8 374.8Q150.3 374.4 149.6 374.4Q149 374.4 148.6 374.6Q148.2 374.9 147.9 375.3Q147.7 375.7 147.7 376.3V382H146.3V376Q146.3 375.3 145.8 374.8Q145.3 374.4 144.6 374.4Q144.1 374.4 143.6 374.6Q143.2 374.9 142.9 375.3Q142.6 375.8 142.6 376.5V382ZM158.8 382.2Q157.6 382.2 156.7 381.6Q155.8 381.1 155.3 380Q154.8 379 154.8 377.7Q154.8 376.3 155.3 375.3Q155.8 374.3 156.7 373.7Q157.6 373.2 158.8 373.2Q160 373.2 160.9 373.7Q161.8 374.3 162.3 375.3Q162.8 376.3 162.8 377.7Q162.8 379 162.3 380Q161.8 381.1 160.9 381.6Q160 382.2 158.8 382.2ZM158.8 380.9Q159.7 380.9 160.2 380.5Q160.8 380 161.1 379.3Q161.4 378.5 161.4 377.7Q161.4 376.8 161.1 376.1Q160.8 375.3 160.2 374.9Q159.7 374.4 158.8 374.4Q157.9 374.4 157.4 374.9Q156.8 375.3 156.5 376.1Q156.2 376.8 156.2 377.7Q156.2 378.5 156.5 379.3Q156.8 380 157.4 380.5Q157.9 380.9 158.8 380.9ZM168.1 382.2Q167 382.2 166.2 381.6Q165.4 381.1 164.9 380.1Q164.4 379 164.4 377.7Q164.4 376.3 164.9 375.3Q165.4 374.2 166.2 373.7Q167 373.2 168.1 373.2Q169 373.2 169.5 373.4Q170 373.7 170.2 374.1Q170.5 374.4 170.6 374.7H170.8V370.4H172.2V382H170.8V380.6H170.6Q170.5 380.9 170.2 381.3Q170 381.6 169.4 381.9Q168.9 382.2 168.1 382.2ZM168.3 380.9Q169.1 380.9 169.7 380.5Q170.2 380.1 170.5 379.4Q170.8 378.6 170.8 377.6Q170.8 376.7 170.5 375.9Q170.2 375.2 169.7 374.8Q169.1 374.4 168.3 374.4Q167.5 374.4 166.9 374.8Q166.4 375.3 166.1 376Q165.8 376.7 165.8 377.6Q165.8 378.6 166.1 379.3Q166.4 380 167 380.5Q167.5 380.9 168.3 380.9ZM178.3 382.2Q177 382.2 176.1 381.6Q175.2 381.1 174.7 380.1Q174.2 379 174.2 377.7Q174.2 376.4 174.7 375.3Q175.2 374.3 176.1 373.7Q177 373.2 178.1 373.2Q178.8 373.2 179.5 373.4Q180.2 373.6 180.7 374.1Q181.3 374.6 181.6 375.5Q181.9 376.3 181.9 377.5V378.1H175.2V376.9H181.2L180.5 377.4Q180.5 376.5 180.3 375.8Q180 375.2 179.5 374.8Q178.9 374.4 178.1 374.4Q177.4 374.4 176.8 374.8Q176.2 375.2 175.9 375.8Q175.6 376.4 175.6 377.1V377.9Q175.6 378.9 176 379.6Q176.3 380.2 176.9 380.6Q177.5 380.9 178.3 380.9Q178.8 380.9 179.2 380.8Q179.7 380.6 180 380.3Q180.3 380 180.4 379.6L181.8 380Q181.6 380.6 181.1 381.1Q180.6 381.6 179.9 381.9Q179.2 382.2 178.3 382.2ZM185.4 370.4V382H184V370.4ZM194.8 382.2Q194 382.2 193.3 381.9Q192.6 381.6 192.2 381Q191.8 380.4 191.8 379.5Q191.8 378.8 192.1 378.3Q192.4 377.8 192.9 377.6Q193.4 377.3 194 377.2Q194.6 377 195.2 376.9Q196 376.8 196.5 376.8Q197 376.7 197.2 376.6Q197.4 376.5 197.4 376.1V376.1Q197.4 375.6 197.2 375.2Q197 374.8 196.6 374.6Q196.2 374.4 195.6 374.4Q195 374.4 194.5 374.6Q194.1 374.8 193.8 375.1Q193.5 375.4 193.4 375.7L192.1 375.2Q192.4 374.4 193 374Q193.5 373.5 194.2 373.3Q194.9 373.2 195.6 373.2Q196 373.2 196.6 373.3Q197.1 373.4 197.7 373.7Q198.2 374 198.5 374.6Q198.9 375.2 198.9 376.2V382H197.5V380.8H197.4Q197.2 381.1 196.9 381.4Q196.6 381.8 196 382Q195.5 382.2 194.8 382.2ZM195 381Q195.8 381 196.3 380.7Q196.9 380.4 197.2 379.9Q197.4 379.4 197.4 378.8V377.6Q197.4 377.7 197.1 377.8Q196.8 377.9 196.4 378Q196 378 195.7 378.1Q195.3 378.1 195.1 378.1Q194.6 378.2 194.2 378.3Q193.8 378.5 193.5 378.8Q193.2 379.1 193.2 379.6Q193.2 380 193.5 380.3Q193.7 380.6 194.1 380.8Q194.5 381 195 381ZM202.7 376.8V382H201.3V373.3H202.7L202.7 375.4H202.5Q202.9 374.2 203.6 373.7Q204.4 373.2 205.4 373.2Q206.2 373.2 206.9 373.5Q207.6 373.9 207.9 374.6Q208.3 375.3 208.3 376.5V382H206.9V376.6Q206.9 375.6 206.4 375Q205.8 374.4 204.9 374.4Q204.3 374.4 203.8 374.7Q203.3 375 203 375.5Q202.7 376 202.7 376.8ZM214 382.2Q213 382.2 212.1 381.6Q211.3 381.1 210.8 380.1Q210.4 379 210.4 377.7Q210.4 376.3 210.8 375.3Q211.3 374.2 212.1 373.7Q213 373.2 214.1 373.2Q214.9 373.2 215.4 373.4Q215.9 373.7 216.2 374.1Q216.4 374.4 216.6 374.7H216.7V370.4H218.1V382H216.7V380.6H216.6Q216.4 380.9 216.2 381.3Q215.9 381.6 215.4 381.9Q214.9 382.2 214 382.2ZM214.3 380.9Q215.1 380.9 215.6 380.5Q216.1 380.1 216.4 379.4Q216.7 378.6 216.7 377.6Q216.7 376.7 216.4 375.9Q216.2 375.2 215.6 374.8Q215.1 374.4 214.3 374.4Q213.4 374.4 212.9 374.8Q212.3 375.3 212.1 376Q211.8 376.7 211.8 377.6Q211.8 378.6 212.1 379.3Q212.3 380 212.9 380.5Q213.4 380.9 214.3 380.9ZM227.5 382.2Q226.7 382.2 226 381.9Q225.3 381.6 224.9 381Q224.5 380.4 224.5 379.5Q224.5 378.8 224.8 378.3Q225.1 377.8 225.6 377.6Q226.1 377.3 226.7 377.2Q227.3 377 227.9 376.9Q228.7 376.8 229.2 376.8Q229.7 376.7 229.9 376.6Q230.2 376.5 230.2 376.1V376.1Q230.2 375.6 230 375.2Q229.8 374.8 229.4 374.6Q229 374.4 228.4 374.4Q227.7 374.4 227.3 374.6Q226.8 374.8 226.6 375.1Q226.3 375.4 226.1 375.7L224.8 375.2Q225.1 374.4 225.7 374Q226.3 373.5 227 373.3Q227.6 373.2 228.3 373.2Q228.8 373.2 229.3 373.3Q229.9 373.4 230.4 373.7Q230.9 374 231.2 374.6Q231.6 375.2 231.6 376.2V382H230.2V380.8H230.1Q230 381.1 229.6 381.4Q229.3 381.8 228.8 382Q228.3 382.2 227.5 382.2ZM227.8 381Q228.5 381 229.1 380.7Q229.6 380.4 229.9 379.9Q230.2 379.4 230.2 378.8V377.6Q230.1 377.7 229.8 377.8Q229.5 377.9 229.1 378Q228.8 378 228.4 378.1Q228.1 378.1 227.9 378.1Q227.4 378.2 226.9 378.3Q226.5 378.5 226.2 378.8Q226 379.1 226 379.6Q226 380 226.2 380.3Q226.4 380.6 226.8 380.8Q227.2 381 227.8 381ZM238.6 382V373.3H239.9V374.6H240Q240.2 373.9 240.9 373.5Q241.5 373.1 242.3 373.1Q242.4 373.1 242.6 373.1Q242.9 373.2 243 373.2V374.6Q242.9 374.6 242.7 374.5Q242.4 374.5 242.1 374.5Q241.5 374.5 241 374.8Q240.5 375 240.2 375.5Q240 375.9 240 376.5V382ZM247.5 382.1Q246.7 382.1 246 381.7Q245.3 381.4 244.9 380.6Q244.6 379.9 244.6 378.8V373.3H246V378.7Q246 379.7 246.5 380.3Q247 380.8 248 380.8Q248.6 380.8 249.1 380.6Q249.6 380.3 249.9 379.8Q250.2 379.2 250.2 378.5V373.3H251.6V382H250.2V379.9H250.4Q250 381.1 249.2 381.6Q248.5 382.1 247.5 382.1ZM255.4 370.4V382H254V370.4ZM261.6 382.2Q260.3 382.2 259.4 381.6Q258.5 381.1 258 380.1Q257.5 379 257.5 377.7Q257.5 376.4 258 375.3Q258.5 374.3 259.3 373.7Q260.2 373.2 261.4 373.2Q262.1 373.2 262.8 373.4Q263.5 373.6 264 374.1Q264.6 374.6 264.9 375.5Q265.2 376.3 265.2 377.5V378.1H258.4V376.9H264.5L263.8 377.4Q263.8 376.5 263.5 375.8Q263.3 375.2 262.7 374.8Q262.2 374.4 261.4 374.4Q260.6 374.4 260.1 374.8Q259.5 375.2 259.2 375.8Q258.9 376.4 258.9 377.1V377.9Q258.9 378.9 259.2 379.6Q259.6 380.2 260.2 380.6Q260.8 380.9 261.6 380.9Q262.1 380.9 262.5 380.8Q263 380.6 263.3 380.3Q263.6 380 263.7 379.6L265.1 380Q264.9 380.6 264.4 381.1Q263.9 381.6 263.2 381.9Q262.5 382.2 261.6 382.2ZM275 382.2Q273.9 382.2 273.1 381.6Q272.3 381.1 271.8 380.1Q271.3 379 271.3 377.7Q271.3 376.3 271.8 375.3Q272.3 374.2 273.1 373.7Q273.9 373.2 275 373.2Q275.9 373.2 276.4 373.4Q276.9 373.7 277.1 374.1Q277.4 374.4 277.6 374.7H277.7V370.4H279.1V382H277.7V380.6H277.6Q277.4 380.9 277.1 381.3Q276.9 381.6 276.4 381.9Q275.9 382.2 275 382.2ZM275.2 380.9Q276 380.9 276.6 380.5Q277.1 380.1 277.4 379.4Q277.7 378.6 277.7 377.6Q277.7 376.7 277.4 375.9Q277.1 375.2 276.6 374.8Q276 374.4 275.2 374.4Q274.4 374.4 273.8 374.8Q273.3 375.3 273 376Q272.8 376.7 272.8 377.6Q272.8 378.6 273 379.3Q273.3 380 273.9 380.5Q274.4 380.9 275.2 380.9ZM281.5 382V373.3H282.9V382ZM282.2 371.8Q281.9 371.8 281.6 371.6Q281.3 371.3 281.3 370.9Q281.3 370.5 281.6 370.2Q281.9 370 282.2 370Q282.7 370 282.9 370.2Q283.2 370.5 283.2 370.9Q283.2 371.3 282.9 371.6Q282.7 371.8 282.2 371.8ZM288.4 382.2Q287.5 382.2 286.8 381.9Q286.1 381.7 285.6 381.1Q285.2 380.6 285 379.9L286.4 379.6Q286.5 380.3 287.1 380.6Q287.6 381 288.4 381Q289.3 381 289.8 380.6Q290.4 380.2 290.4 379.6Q290.4 379.2 290.1 378.9Q289.7 378.6 289.1 378.4L287.6 378.1Q286.4 377.8 285.9 377.2Q285.3 376.6 285.3 375.7Q285.3 375 285.7 374.4Q286.1 373.8 286.9 373.5Q287.6 373.2 288.5 373.2Q289.4 373.2 290.1 373.4Q290.7 373.7 291.1 374.2Q291.5 374.6 291.7 375.3L290.4 375.6Q290.2 375.1 289.8 374.7Q289.4 374.4 288.5 374.4Q287.8 374.4 287.2 374.7Q286.7 375.1 286.7 375.6Q286.7 376.1 287.1 376.4Q287.4 376.7 288.2 376.9L289.5 377.2Q290.7 377.5 291.3 378.1Q291.8 378.6 291.8 379.5Q291.8 380.3 291.4 380.9Q291 381.5 290.2 381.8Q289.4 382.2 288.4 382.2ZM296.3 382.2Q295.5 382.2 294.8 381.9Q294.1 381.6 293.7 381Q293.3 380.4 293.3 379.5Q293.3 378.8 293.6 378.3Q293.9 377.8 294.4 377.6Q294.9 377.3 295.5 377.2Q296.1 377 296.7 376.9Q297.5 376.8 298 376.8Q298.5 376.7 298.7 376.6Q299 376.5 299 376.1V376.1Q299 375.6 298.8 375.2Q298.6 374.8 298.2 374.6Q297.8 374.4 297.1 374.4Q296.5 374.4 296.1 374.6Q295.6 374.8 295.3 375.1Q295.1 375.4 294.9 375.7L293.6 375.2Q293.9 374.4 294.5 374Q295.1 373.5 295.7 373.3Q296.4 373.2 297.1 373.2Q297.5 373.2 298.1 373.3Q298.7 373.4 299.2 373.7Q299.7 374 300 374.6Q300.4 375.2 300.4 376.2V382H299V380.8H298.9Q298.8 381.1 298.4 381.4Q298.1 381.8 297.6 382Q297 382.2 296.3 382.2ZM296.5 381Q297.3 381 297.9 380.7Q298.4 380.4 298.7 379.9Q299 379.4 299 378.8V377.6Q298.9 377.7 298.6 377.8Q298.3 377.9 297.9 378Q297.6 378 297.2 378.1Q296.9 378.1 296.7 378.1Q296.2 378.2 295.7 378.3Q295.3 378.5 295 378.8Q294.7 379.1 294.7 379.6Q294.7 380 295 380.3Q295.2 380.6 295.6 380.8Q296 381 296.5 381ZM306.4 385.5Q305.4 385.5 304.7 385.2Q304 385 303.5 384.6Q303.1 384.1 302.8 383.7L303.9 382.9Q304.1 383.2 304.4 383.5Q304.7 383.8 305.1 384Q305.6 384.2 306.4 384.2Q307.4 384.2 308.1 383.7Q308.8 383.2 308.8 382.1V380.4H308.6Q308.5 380.6 308.2 381Q308 381.3 307.5 381.6Q307 381.9 306.1 381.9Q305.1 381.9 304.2 381.4Q303.4 380.9 302.9 379.9Q302.4 379 302.4 377.6Q302.4 376.2 302.9 375.2Q303.4 374.2 304.2 373.7Q305.1 373.2 306.1 373.2Q307 373.2 307.5 373.4Q308 373.7 308.3 374.1Q308.5 374.4 308.7 374.7H308.8V373.3H310.2V382.2Q310.2 383.4 309.7 384.1Q309.2 384.8 308.3 385.1Q307.4 385.5 306.4 385.5ZM306.3 380.6Q307.1 380.6 307.7 380.2Q308.2 379.9 308.5 379.2Q308.8 378.5 308.8 377.6Q308.8 376.6 308.5 375.9Q308.2 375.2 307.7 374.8Q307.1 374.4 306.3 374.4Q305.5 374.4 305 374.8Q304.4 375.3 304.1 376Q303.9 376.7 303.9 377.6Q303.9 378.5 304.1 379.1Q304.4 379.8 305 380.2Q305.5 380.6 306.3 380.6ZM312.7 382V373.3H314V374.6H314.1Q314.4 373.9 315 373.5Q315.6 373.1 316.4 373.1Q316.5 373.1 316.7 373.1Q317 373.2 317.1 373.2V374.6Q317 374.6 316.8 374.5Q316.5 374.5 316.2 374.5Q315.6 374.5 315.1 374.8Q314.6 375 314.3 375.5Q314.1 375.9 314.1 376.5V382ZM322.4 382.2Q321.1 382.2 320.2 381.6Q319.2 381.1 318.8 380.1Q318.3 379 318.3 377.7Q318.3 376.4 318.7 375.3Q319.2 374.3 320.1 373.7Q321 373.2 322.2 373.2Q322.9 373.2 323.6 373.4Q324.2 373.6 324.8 374.1Q325.3 374.6 325.7 375.5Q326 376.3 326 377.5V378.1H319.2V376.9H325.2L324.6 377.4Q324.6 376.5 324.3 375.8Q324 375.2 323.5 374.8Q323 374.4 322.2 374.4Q321.4 374.4 320.8 374.8Q320.3 375.2 320 375.8Q319.7 376.4 319.7 377.1V377.9Q319.7 378.9 320 379.6Q320.4 380.2 321 380.6Q321.6 380.9 322.4 380.9Q322.9 380.9 323.3 380.8Q323.7 380.6 324 380.3Q324.3 380 324.5 379.6L325.9 380Q325.6 380.6 325.2 381.1Q324.7 381.6 324 381.9Q323.2 382.2 322.4 382.2ZM331.7 382.2Q330.4 382.2 329.5 381.6Q328.6 381.1 328.1 380.1Q327.6 379 327.6 377.7Q327.6 376.4 328.1 375.3Q328.6 374.3 329.4 373.7Q330.3 373.2 331.5 373.2Q332.2 373.2 332.9 373.4Q333.6 373.6 334.1 374.1Q334.7 374.6 335 375.5Q335.3 376.3 335.3 377.5V378.1H328.5V376.9H334.6L333.9 377.4Q333.9 376.5 333.6 375.8Q333.4 375.2 332.8 374.8Q332.3 374.4 331.5 374.4Q330.7 374.4 330.2 374.8Q329.6 375.2 329.3 375.8Q329 376.4 329 377.1V377.9Q329 378.9 329.3 379.6Q329.7 380.2 330.3 380.6Q330.9 380.9 331.7 380.9Q332.2 380.9 332.6 380.8Q333 380.6 333.4 380.3Q333.7 380 333.8 379.6L335.2 380Q335 380.6 334.5 381.1Q334 381.6 333.3 381.9Q332.6 382.2 331.7 382.2ZM337.1 384.8 337.8 380.4H339.4L338.2 384.8ZM349.9 373.3V374.5H345.4V373.3ZM346.7 371.2H348.1V379.7Q348.1 380.3 348.3 380.6Q348.6 380.9 349.1 380.9Q349.2 380.9 349.5 380.8Q349.7 380.8 349.8 380.8L350.1 382Q349.9 382 349.6 382.1Q349.4 382.1 349.1 382.1Q347.9 382.1 347.3 381.5Q346.7 380.9 346.7 379.8ZM353.1 376.8V382H351.7V370.4H353.1V375.4H352.8Q353.2 374.2 354 373.7Q354.7 373.2 355.7 373.2Q356.6 373.2 357.3 373.5Q357.9 373.9 358.3 374.6Q358.7 375.3 358.7 376.5V382H357.3V376.6Q357.3 375.6 356.7 375Q356.2 374.4 355.3 374.4Q354.7 374.4 354.2 374.7Q353.7 375 353.4 375.5Q353.1 376 353.1 376.8ZM364.8 382.2Q363.5 382.2 362.6 381.6Q361.7 381.1 361.2 380.1Q360.7 379 360.7 377.7Q360.7 376.4 361.2 375.3Q361.7 374.3 362.6 373.7Q363.5 373.2 364.6 373.2Q365.3 373.2 366 373.4Q366.7 373.6 367.2 374.1Q367.8 374.6 368.1 375.5Q368.5 376.3 368.5 377.5V378.1H361.7V376.9H367.7L367 377.4Q367 376.5 366.8 375.8Q366.5 375.2 366 374.8Q365.4 374.4 364.6 374.4Q363.9 374.4 363.3 374.8Q362.7 375.2 362.4 375.8Q362.1 376.4 362.1 377.1V377.9Q362.1 378.9 362.5 379.6Q362.8 380.2 363.4 380.6Q364 380.9 364.8 380.9Q365.3 380.9 365.8 380.8Q366.2 380.6 366.5 380.3Q366.8 380 367 379.6L368.3 380Q368.1 380.6 367.6 381.1Q367.1 381.6 366.4 381.9Q365.7 382.2 364.8 382.2ZM375 382V373.3H376.3V374.6H376.4Q376.7 373.9 377.3 373.5Q377.9 373.1 378.7 373.1Q378.8 373.1 379.1 373.1Q379.3 373.2 379.4 373.2V374.6Q379.3 374.6 379.1 374.5Q378.8 374.5 378.6 374.5Q377.9 374.5 377.4 374.8Q376.9 375 376.7 375.5Q376.4 375.9 376.4 376.5V382ZM384 382.1Q383.1 382.1 382.4 381.7Q381.7 381.4 381.4 380.6Q381 379.9 381 378.8V373.3H382.4V378.7Q382.4 379.7 382.9 380.3Q383.5 380.8 384.4 380.8Q385 380.8 385.5 380.6Q386 380.3 386.3 379.8Q386.6 379.2 386.6 378.5V373.3H388V382H386.6V379.9H386.8Q386.4 381.1 385.7 381.6Q384.9 382.1 384 382.1ZM391.9 370.4V382H390.5V370.4ZM398 382.2Q396.7 382.2 395.8 381.6Q394.9 381.1 394.4 380.1Q393.9 379 393.9 377.7Q393.9 376.4 394.4 375.3Q394.9 374.3 395.8 373.7Q396.6 373.2 397.8 373.2Q398.5 373.2 399.2 373.4Q399.9 373.6 400.4 374.1Q401 374.6 401.3 375.5Q401.6 376.3 401.6 377.5V378.1H394.9V376.9H400.9L400.2 377.4Q400.2 376.5 400 375.8Q399.7 375.2 399.2 374.8Q398.6 374.4 397.8 374.4Q397 374.4 396.5 374.8Q395.9 375.2 395.6 375.8Q395.3 376.4 395.3 377.1V377.9Q395.3 378.9 395.7 379.6Q396 380.2 396.6 380.6Q397.2 380.9 398 380.9Q398.5 380.9 398.9 380.8Q399.4 380.6 399.7 380.3Q400 380 400.1 379.6L401.5 380Q401.3 380.6 400.8 381.1Q400.3 381.6 399.6 381.9Q398.9 382.2 398 382.2ZM410.1 382 407.5 373.3H409L410 377.1Q410.2 377.9 410.5 378.8Q410.7 379.8 411 381.1H410.7Q411 379.9 411.2 378.9Q411.5 377.9 411.7 377.1L412.7 373.3H414.2L415.3 377.1Q415.5 377.9 415.7 378.9Q416 379.9 416.2 381.1H415.9Q416.2 379.9 416.4 378.9Q416.7 377.9 416.9 377.1L418 373.3H419.5L416.8 382H415.4L414.3 378Q414.1 377.4 414 376.8Q413.8 376.2 413.6 375.5Q413.5 374.9 413.3 374.2H413.6Q413.5 374.9 413.3 375.5Q413.1 376.2 413 376.8Q412.8 377.5 412.6 378L411.5 382ZM421.2 382V373.3H422.7V382ZM422 371.8Q421.6 371.8 421.3 371.6Q421 371.3 421 370.9Q421 370.5 421.3 370.2Q421.6 370 422 370Q422.4 370 422.7 370.2Q422.9 370.5 422.9 370.9Q422.9 371.3 422.7 371.6Q422.4 371.8 422 371.8ZM426.5 376.8V382H425.1V373.3H426.5L426.5 375.4H426.3Q426.7 374.2 427.4 373.7Q428.2 373.2 429.2 373.2Q430 373.2 430.7 373.5Q431.4 373.9 431.7 374.6Q432.1 375.3 432.1 376.5V382H430.7V376.6Q430.7 375.6 430.2 375Q429.6 374.4 428.7 374.4Q428.1 374.4 427.6 374.7Q427.1 375 426.8 375.5Q426.5 376 426.5 376.8ZM437.5 382.2Q436.6 382.2 435.9 381.9Q435.2 381.7 434.8 381.1Q434.3 380.6 434.2 379.9L435.5 379.6Q435.7 380.3 436.2 380.6Q436.8 381 437.5 381Q438.4 381 439 380.6Q439.5 380.2 439.5 379.6Q439.5 379.2 439.2 378.9Q438.9 378.6 438.2 378.4L436.8 378.1Q435.6 377.8 435 377.2Q434.5 376.6 434.5 375.7Q434.5 375 434.9 374.4Q435.3 373.8 436 373.5Q436.8 373.2 437.7 373.2Q438.6 373.2 439.2 373.4Q439.8 373.7 440.2 374.2Q440.6 374.6 440.8 375.3L439.6 375.6Q439.4 375.1 439 374.7Q438.5 374.4 437.7 374.4Q436.9 374.4 436.4 374.7Q435.9 375.1 435.9 375.6Q435.9 376.1 436.2 376.4Q436.6 376.7 437.3 376.9L438.7 377.2Q439.9 377.5 440.4 378.1Q441 378.6 441 379.5Q441 380.3 440.6 380.9Q440.1 381.5 439.3 381.8Q438.6 382.2 437.5 382.2ZM444.1 382.1Q443.7 382.1 443.3 381.8Q443 381.5 443 381Q443 380.6 443.3 380.3Q443.7 380 444.1 380Q444.5 380 444.8 380.3Q445.1 380.6 445.1 381Q445.1 381.5 444.8 381.8Q444.5 382.1 444.1 382.1Z"/>
</svg>
